<svg viewBox="487.67441860465124 67.69999999999982 1422.3837209302326 2640.2999999999993" xmlns="http://www.w3.org/2000/svg" xmlns:xlink="http://www.w3.org/1999/xlink" xmlns:blush="http://design.blush" overflow="visible" width="1422.3837209302326px" height="2640.2999999999993px"><defs><polygon id="mastercharacterstanding-path-1" points="0.893394597 0.106 258.492632 0.106 258.492632 218.7317 0.893394597 218.7317"/></defs><g id="Master/Character/Standing" stroke="none" stroke-width="1" fill="none" fill-rule="evenodd" blush:has-customizable-colors="true" blush:i="0"><g id="Lower Body/Standing" transform="translate(503.000000, 1151.000000) scale(1 1)" blush:width="1383" blush:height="1557" blush:component="Lower Body/Standing" blush:i="0.0" blush:value="Dancing"><defs blush:i="0.0.0"><polygon id="lower-bodystandingdancing-path-1" points="0.19846315 0.0324 151.755 0.0324 151.755 261.623602 0.19846315 261.623602" blush:i="0.0.0.0"/><polygon id="lower-bodystandingdancing-path-3" points="0.646920118 0.4054 228.3555 0.4054 228.3555 139 0.646920118 139" blush:i="0.0.0.1"/><polygon id="lower-bodystandingdancing-path-5" points="0 0.4054 128.840068 0.4054 128.840068 272.564839 0 272.564839" blush:i="0.0.0.2"/></defs><g id="Lower Body/Standing/Dancing" stroke="none" stroke-width="1" fill="none" fill-rule="evenodd" blush:i="0.0.1"><g id="Group-104" blush:i="0.0.1.0"><path d="M647.9117,523.2376 C647.9117,523.2376 645.6057,371.9956 681.6057,277.9956" id="Stroke-1" stroke="#031D1C" stroke-width="3" blush:i="0.0.1.0.0"/><path d="M149.6055,1111.9954 C149.6055,1111.9954 135.6055,1155.9954 126.6055,1184.9954 C117.6055,1213.9954 131.6055,1282.9954 175.6055,1278.9954 C219.6055,1274.9954 233.6055,1229.9954 233.6055,1229.9954 C233.6055,1229.9954 247.6055,1168.9954 249.6055,1160.9954 C251.6055,1152.9954 149.6055,1111.9954 149.6055,1111.9954" id="Fill-3" fill="#f6cbc3" blush:color="Skin-500" blush:i="0.0.1.0.1"/><path d="M1072.6055,1109.056 C1072.6055,1109.056 1114.2495,1192.54 1125.7015,1203.976 C1137.1535,1215.412 1199.6195,1193.684 1216.2775,1150.226 C1232.9355,1106.769 1219.4005,1089.615 1219.4005,1089.615 C1219.4005,1089.615 1151.7295,998.124 1140.2775,986.689 C1128.8245,975.252 1072.6055,1109.056 1072.6055,1109.056" id="Fill-5" fill="#f6cbc3" blush:color="Skin-500" blush:i="0.0.1.0.2"/><path d="M425,0 C425,0 357.6051,583.9957 324.6051,658.9957 C291.6051,733.9957 175.6051,947.9957 163.6051,1070.9957 C163.6051,1070.9957 142.6051,1114.9957 147.6051,1139.9957 C152.6051,1164.9957 195.6051,1233.9957 234.6051,1211.9957 C273.6051,1189.9957 274.6051,1178.9957 274.6051,1178.9957 C274.6051,1178.9957 605.6051,815.9957 620.6051,708.9957 C635.6051,601.9957 651.6051,497.9957 651.6051,497.9957 C651.6051,497.9957 640.6051,717.9957 707.6051,801.9957 C808.0941,927.9797 1050.6051,1125.9957 1099.6051,1114.9957 C1148.6051,1103.9957 1170.6051,1063.9957 1170.6051,1005.9957 C1170.6051,1005.9957 1003.6051,755.9957 952.6051,682.9957 C901.6051,609.9957 887.6051,589.9957 898.6051,443.9957 C909.6051,297.9957 874,0 874,0 C874,0 425,0 425,0 Z" id="Fill-7" fill="#165C5D" blush:i="0.0.1.0.3"/><path d="M1231.6067,1477.9241 C1231.6067,1477.9241 1220.1477,1433.1871 1207.9527,1429.5701 C1195.7587,1425.9541 1164.7957,1416.7171 1164.7957,1416.7171 C1164.7957,1416.7171 1120.7957,1418.7061 1118.8937,1419.8831 C1116.9927,1421.0601 1094.8097,1442.1531 1094.8097,1442.1531 C1094.8097,1442.1531 1073.9857,1456.0941 1076.3377,1481.9861 C1078.6897,1507.8801 1171.4897,1490.4141 1171.4897,1490.4141 L1231.6067,1477.9241 Z" id="Fill-9" fill="#F3CDD5" blush:i="0.0.1.0.4"/><path d="M1306.6055,1269.9954 C1306.6055,1269.9954 1299.5185,1443.8544 1297.3455,1453.0904 C1295.1715,1462.3244 1297.6055,1492.9954 1291.6055,1513.9954 C1284.4625,1538.9944 1237.6055,1547.9954 1214.6055,1536.9954 C1193.5445,1526.9234 1144.9705,1500.0664 1113.1905,1515.0024 C1081.4115,1529.9384 1080.5965,1532.0204 1078.3335,1529.2144 C1076.0705,1526.4074 1070.8225,1479.6894 1074.1735,1472.3564 C1077.5235,1465.0234 1091.1055,1437.6824 1155.3855,1448.9144 C1219.6655,1460.1454 1280.7825,1465.9464 1278.6535,1438.8754 C1276.5245,1411.8044 1282.5015,1389.1704 1288.5685,1378.5784" id="Fill-11" fill="#FEE1E6" blush:i="0.0.1.0.5"/><path d="M1223.7458,1319.929 C1223.7458,1319.929 1216.7288,1239.395 1215.5778,1219.867 C1214.4258,1200.341 1210.6248,1142.022 1192.6058,1154.995 C1167.6058,1172.995 1120.9938,1188.745 1124.9768,1199.429 C1128.9588,1210.113 1137.3788,1214.367 1139.7298,1251.307 C1142.0808,1288.245 1106.5358,1438.283 1106.5358,1438.283 C1106.5358,1438.283 1166.9948,1408.656 1207.6748,1447.048 L1223.7458,1319.929 Z" id="Fill-13" fill="#CD382F" blush:i="0.0.1.0.6"/><path d="M1222.6055,1075.9954 C1222.6055,1075.9954 1258.7405,1109.7144 1268.6055,1151.9954 C1278.4705,1194.2754 1310.7665,1269.4894 1305.6055,1278.9954 C1300.4445,1288.5014 1276.4265,1418.6274 1276.2435,1438.7254 C1276.0615,1458.8244 1283.9375,1468.1504 1223.4595,1465.6104 L1191.5945,1424.3244 C1191.5945,1424.3244 1230.3495,1342.4824 1224.0165,1283.8154 C1217.6835,1225.1474 1181.9375,1152.3854 1196.6055,1136.9954 C1211.2735,1121.6044 1227.7655,1077.5344 1222.6055,1075.9954" id="Fill-15" fill="#F87786" blush:i="0.0.1.0.7"/><path d="M1118.6055,1188.9954 C1118.6055,1188.9954 1132.3885,1358.4094 1108.1215,1400.7784 C1083.8555,1443.1474 1078.7835,1464.6944 1078.7835,1464.6944 C1078.7835,1464.6944 1116.2675,1435.1824 1127.2235,1412.0974 C1138.1805,1389.0114 1146.1505,1355.1514 1137.4635,1292.6814 C1128.7765,1230.2114 1132.0955,1182.7494 1118.6055,1188.9954" id="Fill-17" fill="#F87786" blush:i="0.0.1.0.8"/><path d="M1249.8264,1378.7737 C1249.8264,1378.7737 1251.0424,1392.3657 1247.1404,1390.5487 C1243.2394,1388.7317 1180.5864,1363.6257 1180.5864,1363.6257 C1180.5864,1363.6257 1122.0864,1370.5757 1114.2714,1384.4387 C1114.2714,1384.4387 1114.2694,1371.7987 1117.3254,1366.3227 C1122.9134,1356.3057 1155.1814,1352.6087 1155.1814,1352.6087 L1141.4424,1347.5457 L1140.0864,1332.6077 L1181.5974,1346.1857 L1218.5794,1345.5597 L1214.6854,1357.9627 L1213.9454,1358.4007 C1213.9454,1358.4007 1242.2534,1371.1757 1249.8264,1378.7737" id="Fill-19" fill="#FEE1E6" blush:i="0.0.1.0.9"/><path d="M1249.8264,1378.7737 C1249.8264,1378.7737 1253.2224,1389.3107 1249.0914,1391.4577 C1244.9604,1393.6037 1155.1814,1352.6087 1155.1814,1352.6087 C1155.1814,1352.6087 1247.0414,1393.3167 1248.7494,1389.2457 C1250.4574,1385.1727 1249.8264,1378.7737 1249.8264,1378.7737" id="Fill-21" fill="#9A3E1F" blush:i="0.0.1.0.10"/><path d="M1181.71035,1345.69846 C1184.37536,1346.31243 1187.3211,1347.16587 1190.50136,1348.22836 C1193.16767,1349.11915 1195.96198,1350.14452 1198.84409,1351.27852 C1202.55336,1352.73797 1206.2196,1354.30134 1209.68115,1355.86474 L1211.17567,1356.5458 C1211.65221,1356.76497 1212.10658,1356.97596 1212.53719,1357.17773 L1214.16428,1357.9513 L1213.72592,1358.8501 L1212.5333,1358.28086 L1211.2245,1357.66961 C1210.61188,1357.38612 1209.95896,1357.08748 1209.26953,1356.7761 C1205.82209,1355.21907 1202.17067,1353.66202 1198.47795,1352.20908 C1195.61128,1351.08115 1192.83315,1350.06172 1190.18449,1349.17683 C1187.29529,1348.21158 1184.60447,1347.42131 1182.14951,1346.82942 L1181.48585,1346.67294 L1181.71035,1345.69846 Z" id="Stroke-23" fill="#9A3E1F" fill-rule="nonzero" blush:i="0.0.1.0.11"/><path d="M1239.7659,1400.4788 C1239.7659,1400.4788 1241.2079,1409.6098 1237.3399,1408.3208 C1233.4719,1407.0328 1171.4299,1389.0678 1171.4299,1389.0678 C1171.4299,1389.0678 1114.0519,1392.6608 1106.6219,1401.8088 C1106.6219,1401.8088 1106.3899,1393.3378 1109.2939,1389.7238 C1114.6049,1383.1128 1146.2569,1381.2218 1146.2569,1381.2218 L1126.2239,1376.1748 L1129.0159,1366.8248 L1172.1059,1377.3978 L1208.3469,1376.6138 L1205.1769,1385.9378 L1204.1249,1386.1718 C1204.1249,1386.1718 1232.1839,1395.2498 1239.7659,1400.4788" id="Fill-25" fill="#FEE1E6" blush:i="0.0.1.0.12"/><path d="M1239.7659,1400.4788 C1239.7659,1400.4788 1243.2959,1407.6018 1239.2739,1408.9648 C1235.2519,1410.3288 1146.2569,1381.2218 1146.2569,1381.2218 C1146.2569,1381.2218 1237.2929,1410.1738 1238.8979,1407.4758 C1240.5029,1404.7788 1239.7659,1400.4788 1239.7659,1400.4788" id="Fill-27" fill="#9A3E1F" blush:i="0.0.1.0.13"/><path d="M1172.1919,1376.90567 C1174.84535,1377.3695 1177.78546,1378.00231 1180.96431,1378.78214 C1183.46958,1379.39672 1186.09091,1380.09472 1188.79417,1380.86069 C1192.52968,1381.91915 1196.23456,1383.05303 1199.74159,1384.18693 L1201.73204,1384.83783 L1204.28907,1385.69996 L1203.96053,1386.64444 L1202.74712,1386.23092 L1200.94362,1385.63073 C1200.4621,1385.47233 1199.95832,1385.30798 1199.43395,1385.13844 C1195.93784,1384.00807 1192.24439,1382.87768 1188.52155,1381.82281 C1185.82916,1381.05993 1183.21915,1380.36494 1180.72606,1379.75334 C1177.85482,1379.04898 1175.1817,1378.46578 1172.74394,1378.02025 L1172.0197,1377.89073 L1172.1919,1376.90567 Z" id="Stroke-29" fill="#9A3E1F" fill-rule="nonzero" blush:i="0.0.1.0.14"/><path d="M1251.7561,1345.4798 C1251.7561,1345.4798 1252.9721,1359.0718 1249.0701,1357.2538 C1245.1691,1355.4378 1182.5161,1330.3318 1182.5161,1330.3318 C1182.5161,1330.3318 1126.8461,1339.5048 1119.0311,1353.3698 C1119.0311,1353.3698 1118.7671,1340.6278 1122.0841,1335.2518 C1125.4011,1329.8768 1157.1111,1319.3138 1157.1111,1319.3138 L1136.8611,1312.3338 L1139.9601,1298.2948 L1183.5271,1312.8908 L1221.7501,1314.1448 L1220.9351,1327.2728 L1215.8751,1325.1058 C1215.8751,1325.1058 1244.1831,1337.8818 1251.7561,1345.4798" id="Fill-31" fill="#FEE1E6" blush:i="0.0.1.0.15"/><path d="M1251.7561,1345.4798 C1251.7561,1345.4798 1255.1521,1356.0158 1251.0211,1358.1638 C1246.8901,1360.3098 1157.1111,1319.3138 1157.1111,1319.3138 C1157.1111,1319.3138 1248.9711,1360.0218 1250.6791,1355.9508 C1252.3871,1351.8788 1251.7561,1345.4798 1251.7561,1345.4798" id="Fill-33" fill="#9A3E1F" blush:i="0.0.1.0.16"/><path d="M1183.64008,1312.40357 C1186.30508,1313.01773 1189.25081,1313.8713 1192.43107,1314.93385 C1195.09665,1315.82445 1197.89017,1316.84952 1200.77147,1317.98314 C1204.4812,1319.4427 1208.14798,1321.00618 1211.61008,1322.56968 L1213.10484,1323.2508 C1213.42258,1323.39692 1213.73048,1323.5394 1214.02804,1323.67795 L1216.09396,1324.65639 L1215.65564,1325.55521 L1214.46281,1324.98593 L1213.15379,1324.37464 C1212.54106,1324.09113 1211.88803,1323.79246 1211.19849,1323.48106 C1207.7505,1321.92392 1204.09854,1320.36675 1200.40535,1318.91371 C1197.53948,1317.78616 1194.76213,1316.76702 1192.11418,1315.88232 C1189.22497,1314.917 1186.53415,1314.12662 1184.07918,1313.53456 L1183.41552,1313.37803 L1183.64008,1312.40357 Z" id="Stroke-35" fill="#9A3E1F" fill-rule="nonzero" blush:i="0.0.1.0.17"/><path d="M1253.3479,1308.262 C1253.3479,1308.262 1256.8779,1325.012 1252.7129,1323.381 C1248.5489,1321.751 1182.3689,1300.652 1182.3689,1300.652 C1182.3689,1300.652 1125.7829,1318.845 1120.4399,1337.405 C1120.4399,1337.405 1118.2709,1321.645 1120.3509,1314.318 C1124.1539,1300.919 1155.3899,1291.053 1155.3899,1291.053 L1134.1939,1285.648 L1134.8489,1267.64 L1180.3789,1278.742 L1220.4799,1268.645 L1222.6819,1288.684 L1214.4189,1288.703 C1214.4189,1288.703 1244.5669,1300.023 1253.3479,1308.262" id="Fill-37" fill="#FEE1E6" blush:i="0.0.1.0.18"/><path d="M1253.3479,1308.262 C1253.3479,1308.262 1258.5079,1320.847 1254.7959,1324.197 C1251.0829,1327.546 1155.3899,1291.053 1155.3899,1291.053 C1155.3899,1291.053 1253.0889,1326.849 1254.0779,1321.493 C1255.0679,1316.139 1253.3479,1308.262 1253.3479,1308.262" id="Fill-39" fill="#9A3E1F" blush:i="0.0.1.0.19"/><path d="M1180.4383,1278.24603 C1183.42432,1278.60757 1186.78527,1279.26891 1190.45483,1280.19012 C1193.64018,1280.98977 1196.99794,1281.96996 1200.46001,1283.09085 C1203.5043,1284.07648 1206.48615,1285.12354 1209.31316,1286.17833 L1210.51499,1286.63069 C1211.15072,1286.87208 1211.7516,1287.10363 1212.31439,1287.32349 L1213.73964,1287.88753 L1214.61109,1288.24169 L1214.22731,1289.16511 L1213.14414,1288.72628 L1211.95019,1288.25481 C1211.39042,1288.03613 1210.79262,1287.80577 1210.16002,1287.56557 C1206.99651,1286.3644 1203.61424,1285.16318 1200.15199,1284.04223 C1196.71001,1282.92785 1193.37336,1281.95382 1190.21134,1281.16002 C1186.83896,1280.31342 1183.73441,1279.68945 1180.95396,1279.3196 L1180.3181,1279.23877 L1180.4383,1278.24603 Z" id="Stroke-41" fill="#9A3E1F" fill-rule="nonzero" blush:i="0.0.1.0.20"/><path d="M1249.5486,1266.4349 C1249.5486,1266.4349 1253.0786,1283.1839 1248.9136,1281.5539 C1244.7496,1279.9239 1178.5696,1258.8249 1178.5696,1258.8249 C1178.5696,1258.8249 1129.4076,1270.3189 1124.0646,1288.8779 C1124.0646,1288.8779 1121.6216,1273.0339 1123.9756,1265.7909 C1126.3296,1258.5479 1151.5906,1249.2249 1151.5906,1249.2249 L1130.3946,1243.8199 L1131.0496,1225.8119 L1176.5796,1236.9139 L1216.6806,1226.8169 L1218.8826,1246.8559 L1210.6196,1246.8749 C1210.6196,1246.8749 1240.7676,1258.1949 1249.5486,1266.4349" id="Fill-43" fill="#FEE1E6" blush:i="0.0.1.0.21"/><path d="M1249.5486,1266.4349 C1249.5486,1266.4349 1254.7086,1279.0189 1250.9966,1282.3689 C1247.2836,1285.7179 1151.5906,1249.2249 1151.5906,1249.2249 C1151.5906,1249.2249 1249.2896,1285.0209 1250.2786,1279.6659 C1251.2686,1274.3109 1249.5486,1266.4349 1249.5486,1266.4349" id="Fill-45" fill="#9A3E1F" blush:i="0.0.1.0.22"/><path d="M1176.639,1236.41793 C1179.62502,1236.77947 1182.98597,1237.44081 1186.65553,1238.36202 C1189.84088,1239.16167 1193.19864,1240.14186 1196.66071,1241.26275 C1200.1399,1242.38918 1203.53753,1243.59586 1206.71569,1244.80259 L1208.51509,1245.49539 L1209.94034,1246.05943 L1210.81179,1246.41359 L1210.42801,1247.33701 L1209.34484,1246.89818 L1208.15089,1246.42671 C1207.73106,1246.2627 1207.28984,1246.09212 1206.82859,1245.91574 L1206.36072,1245.73747 C1203.19721,1244.5363 1199.81494,1243.33508 1196.35269,1242.21413 C1192.91071,1241.09975 1189.57406,1240.12572 1186.41204,1239.33192 C1183.03966,1238.48532 1179.93511,1237.86135 1177.15466,1237.4915 L1176.5188,1237.41067 L1176.639,1236.41793 Z" id="Stroke-47" fill="#9A3E1F" fill-rule="nonzero" blush:i="0.0.1.0.23"/><g id="Group-51" transform="translate(1241.000000, 1198.590000)" blush:i="0.0.1.0.24"><mask id="lower-bodystandingdancing-mask-2" fill="#fff" blush:i="0.0.1.0.24.0"><use xlink:href="#lower-bodystandingdancing-path-1" blush:i="0.0.1.0.24.0.0"/></mask><g id="Clip-50" blush:i="0.0.1.0.24.1"/><path d="M3.3933,0.0324 C3.3933,0.0324 -2.8547,8.6334 2.1243,19.2264 C2.1243,19.2264 15.6143,12.9804 24.1223,40.3224 C32.6313,67.6654 18.1363,184.4554 43.2123,228.3674 C68.2873,272.2784 147.5063,260.0624 147.5063,260.0624 C147.5063,260.0624 158.2803,257.0754 145.5153,249.1974 C145.5153,249.1974 92.0593,261.2654 63.7633,233.5294 C40.9233,211.1404 44.8383,135.5444 39.7813,91.1144 C35.1233,50.1834 38.7923,2.8424 3.3933,0.0324" id="Fill-49" fill="#FEE1E6" mask="url(#lower-bodystandingdancing-mask-2)" blush:i="0.0.1.0.24.2"/></g><path d="M149.6055,1111.9954 C149.6055,1111.9954 133.0855,1140.3184 169.8455,1184.6574 C206.6055,1228.9954 256.6055,1223.9954 282.6055,1173.9954 C282.6055,1173.9954 185.6055,1172.9954 163.6055,1070.9954 C163.6055,1070.9954 151.6055,1100.9954 149.6055,1111.9954" id="Fill-52" fill="#46AFAC" blush:i="0.0.1.0.25"/><path d="M1041.1516,1099.7191 C1041.1516,1099.7191 1101.5116,1139.9561 1142.0586,1094.9761 C1182.6056,1049.9951 1172.6056,1008.9951 1170.6056,1000.9951 C1168.6056,992.9951 1145.5086,966.9021 1145.5086,966.9021 C1145.5086,966.9021 1125.6976,1074.4431 1041.1516,1099.7191" id="Fill-54" fill="#46AFAC" blush:i="0.0.1.0.26"/><path d="M156.1417,1345.9368 C156.1417,1345.9368 155.8447,1265.0978 155.2247,1245.5458 C154.6057,1225.9958 145.6057,1200.9958 167.6057,1197.9958 C189.6057,1194.9958 246.6057,1205.9958 243.6057,1216.9958 C240.6057,1227.9958 232.6057,1232.9958 233.6057,1269.9958 C234.6057,1306.9958 283.5777,1453.2028 283.5777,1453.2028 C283.5777,1453.2028 220.6867,1429.1658 183.6457,1471.0808 L156.1417,1345.9368 Z" id="Fill-56" fill="#CD382F" blush:i="0.0.1.0.27"/><path d="M133.6055,1162.9954 C133.6055,1162.9954 114.6055,1164.9954 108.6055,1207.9954 C102.6055,1250.9954 93.6055,1408.9954 99.6055,1417.9954 C105.6055,1426.9954 112.6055,1448.9954 114.6055,1468.9954 C116.6055,1488.9954 109.6055,1498.9954 169.6055,1490.9954 L197.6055,1446.9954 C197.6055,1446.9954 153.6055,1369.9954 154.6055,1310.9954 C155.6055,1251.9954 156.6055,1222.9954 140.6055,1208.9954 C124.6055,1194.9954 128.6055,1178.9954 133.6055,1162.9954" id="Fill-58" fill="#F87786" blush:i="0.0.1.0.28"/><path d="M250.6055,1217.9954 C250.6055,1217.9954 250.6055,1375.9954 278.6055,1415.9954 C306.6055,1455.9954 313.6055,1476.9954 313.6055,1476.9954 C313.6055,1476.9954 273.6055,1450.9954 260.6055,1428.9954 C247.6055,1406.9954 225.6055,1374.9954 228.6055,1311.9954 C231.6055,1248.9954 236.6055,1212.9954 250.6055,1217.9954" id="Fill-60" fill="#F87786" blush:i="0.0.1.0.29"/><path d="M135.4913,1406.8987 C135.4913,1406.8987 135.5103,1420.5447 139.2313,1418.3827 C142.9523,1416.2207 203.0763,1385.5487 203.0763,1385.5487 C203.0763,1385.5487 261.9653,1387.1777 271.0023,1400.2787 C271.0023,1400.2787 269.8623,1387.6897 266.3233,1382.5117 C259.8513,1373.0427 227.3813,1372.2797 227.3813,1372.2797 L240.6053,1365.9957 L240.6053,1350.9957 L200.4923,1368.2727 L163.6053,1370.9957 L168.6053,1382.9957 L169.3823,1383.3637 C169.3823,1383.3637 142.3463,1398.6477 135.4913,1406.8987" id="Fill-62" fill="#FEE1E6" blush:i="0.0.1.0.30"/><path d="M135.4913,1406.8987 C135.4913,1406.8987 133.0623,1417.7007 137.3703,1419.4637 C141.6793,1421.2287 227.3813,1372.2797 227.3813,1372.2797 C227.3813,1372.2797 139.5803,1421.1297 137.5113,1417.2297 C135.4423,1413.3297 135.4913,1406.8987 135.4913,1406.8987" id="Fill-64" fill="#9A3E1F" blush:i="0.0.1.0.31"/><path d="M200.336538,1367.79751 L200.648262,1368.74769 C198.226578,1369.54217 195.570612,1370.57167 192.718467,1371.80731 C190.30737,1372.85187 187.785224,1374.03108 185.183726,1375.32046 C181.444734,1377.17362 177.728195,1379.15965 174.205346,1381.14568 L173.176571,1381.72889 C172.676445,1382.01402 172.198087,1382.28915 171.743178,1382.55296 L170.159576,1383.4815 L169.641331,1383.79133 L169.123469,1382.93587 L169.869566,1382.49095 L171.241259,1381.68805 C172.002958,1381.24631 172.829877,1380.77314 173.714255,1380.27457 C177.251591,1378.28037 180.983406,1376.28618 184.739647,1374.42447 C187.355727,1373.12786 189.89318,1371.9415 192.320939,1370.88972 C194.937756,1369.75603 197.393721,1368.79321 199.661783,1368.02283 L200.336538,1367.79751 Z" id="Stroke-66" fill="#9A3E1F" fill-rule="nonzero" blush:i="0.0.1.0.32"/><path d="M147.4739,1427.6048 C147.4739,1427.6048 146.8639,1436.8288 150.5989,1435.1958 C154.3349,1433.5618 214.4979,1410.0588 214.4979,1410.0588 C214.4979,1410.0588 271.9649,1408.4468 280.1929,1416.8858 C280.1929,1416.8858 279.6579,1408.4278 276.4379,1405.0908 C270.5509,1398.9888 238.8579,1399.9678 238.8579,1399.9678 L258.3519,1393.1298 L254.7259,1384.0698 L212.7689,1398.4988 L176.6059,1400.9958 L180.6059,1409.9958 L181.6749,1410.1328 C181.6749,1410.1328 154.5519,1421.7108 147.4739,1427.6048" id="Fill-68" fill="#FEE1E6" blush:i="0.0.1.0.33"/><path d="M147.4739,1427.6048 C147.4739,1427.6048 144.6029,1435.0178 148.7319,1436.0118 C152.8599,1437.0058 238.8579,1399.9678 238.8579,1399.9678 C238.8579,1399.9678 150.8139,1437.0368 148.9719,1434.4958 C147.1299,1431.9548 147.4739,1427.6048 147.4739,1427.6048" id="Fill-70" fill="#9A3E1F" blush:i="0.0.1.0.34"/><path d="M212.638302,1398.01538 L212.898898,1398.98082 C210.414753,1399.65135 207.676446,1400.5024 204.726163,1401.51052 C202.585132,1402.24211 200.354374,1403.04896 198.056001,1403.91864 C194.750716,1405.16933 191.442578,1406.49681 188.248376,1407.83526 L186.661311,1408.50509 C185.925643,1408.81782 185.227448,1409.11776 184.571045,1409.40248 L182.903121,1410.13265 L181.880932,1410.58854 L181.468268,1409.67766 L182.76327,1409.1013 L184.17288,1408.48517 C184.831557,1408.19946 185.532069,1407.89852 186.270105,1407.58479 C189.960146,1406.01622 193.832325,1404.44764 197.7021,1402.98336 C200.010165,1402.11001 202.25101,1401.29951 204.402818,1400.56424 C207.102557,1399.64173 209.627931,1398.84927 211.948354,1398.2044 L212.638302,1398.01538 Z" id="Stroke-72" fill="#9A3E1F" fill-rule="nonzero" blush:i="0.0.1.0.35"/><path d="M130.5577,1373.9153 C130.5577,1373.9153 130.5767,1387.5613 134.2977,1385.3993 C138.0187,1383.2373 198.1427,1352.5653 198.1427,1352.5653 C198.1427,1352.5653 254.4147,1356.6663 263.4527,1369.7673 C263.4527,1369.7673 262.5617,1357.0543 258.7727,1352.0003 C254.9837,1346.9463 222.4477,1339.2963 222.4477,1339.2963 L241.9827,1330.5123 L237.6267,1316.8113 L195.5587,1335.2893 L157.6057,1339.9953 L159.6057,1352.9953 L164.4487,1350.3803 C164.4487,1350.3803 137.4127,1365.6643 130.5577,1373.9153" id="Fill-74" fill="#FEE1E6" blush:i="0.0.1.0.36"/><path d="M130.5577,1373.9153 C130.5577,1373.9153 128.1287,1384.7163 132.4367,1386.4803 C136.7457,1388.2453 222.4477,1339.2963 222.4477,1339.2963 C222.4477,1339.2963 134.6467,1388.1463 132.5777,1384.2463 C130.5087,1380.3463 130.5577,1373.9153 130.5577,1373.9153" id="Fill-76" fill="#9A3E1F" blush:i="0.0.1.0.37"/><path d="M195.402938,1334.81411 L195.714662,1335.76429 C193.292978,1336.55877 190.637012,1337.58827 187.784867,1338.82391 C185.37377,1339.86847 182.851624,1341.04768 180.250126,1342.33706 C176.511134,1344.19022 172.794595,1346.17625 169.271746,1348.16228 L168.242971,1348.74549 C167.742845,1349.03062 167.264487,1349.30575 166.809578,1349.56956 L164.707731,1350.80793 L164.189869,1349.95247 L165.172792,1349.36778 L166.307659,1348.70465 C167.069358,1348.26291 167.896277,1347.78974 168.780655,1347.29117 C172.317991,1345.29697 176.049806,1343.30278 179.806047,1341.44107 C182.422127,1340.14446 184.95958,1338.9581 187.387339,1337.90632 C190.004156,1336.77263 192.460121,1335.80981 194.728183,1335.03943 L195.402938,1334.81411 Z" id="Stroke-78" fill="#9A3E1F" fill-rule="nonzero" blush:i="0.0.1.0.38"/><path d="M125.6055,1336.9954 C125.6055,1336.9954 123.6055,1353.9954 127.6055,1351.9954 C131.6055,1349.9954 195.6055,1322.9954 195.6055,1322.9954 C195.6055,1322.9954 253.6055,1335.9954 260.6055,1353.9954 C260.6055,1353.9954 261.3395,1338.1024 258.6055,1330.9954 C253.6055,1317.9954 221.6055,1310.9954 221.6055,1310.9954 L242.2255,1303.6944 L239.9435,1285.8194 L195.6055,1300.9954 L154.7555,1294.5664 L154.3745,1314.7234 L162.6055,1313.9954 C162.6055,1313.9954 133.6055,1327.9954 125.6055,1336.9954" id="Fill-80" fill="#FEE1E6" blush:i="0.0.1.0.39"/><path d="M125.6055,1336.9954 C125.6055,1336.9954 121.6055,1349.9954 125.6055,1352.9954 C129.6055,1355.9954 221.6055,1310.9954 221.6055,1310.9954 C221.6055,1310.9954 127.5445,1355.4814 126.0745,1350.2384 C124.6055,1344.9954 125.6055,1336.9954 125.6055,1336.9954" id="Fill-82" fill="#9A3E1F" blush:i="0.0.1.0.40"/><path d="M195.500735,1300.5065 L195.710265,1301.4843 C192.967041,1302.07213 189.90637,1302.9571 186.584244,1304.1009 C183.731827,1305.08299 180.732334,1306.24003 177.636798,1307.53619 C174.030494,1309.04622 170.481758,1310.66447 167.143787,1312.28269 L166.169874,1312.75786 C165.696824,1312.99017 165.244969,1313.21432 164.815813,1313.42925 L163.324536,1314.18566 L162.838373,1314.43786 L162.372627,1313.55294 L163.535529,1312.95484 L164.806713,1312.31614 C165.40199,1312.01997 166.03679,1311.70803 166.707555,1311.38285 C170.061015,1309.75713 173.626059,1308.13144 177.25057,1306.61378 C180.365,1305.30971 183.384375,1304.145 186.258701,1303.15538 C189.357988,1302.0883 192.236267,1301.24292 194.852233,1300.64957 L195.500735,1300.5065 Z" id="Stroke-84" fill="#9A3E1F" fill-rule="nonzero" blush:i="0.0.1.0.41"/><path d="M125.6055,1294.9954 C125.6055,1294.9954 123.6055,1311.9954 127.6055,1309.9954 C131.6055,1307.9954 195.6055,1280.9954 195.6055,1280.9954 C195.6055,1280.9954 245.6055,1287.9954 252.6055,1305.9954 C252.6055,1305.9954 253.6055,1289.9954 250.6055,1282.9954 C247.6055,1275.9954 221.6055,1268.9954 221.6055,1268.9954 L242.2255,1261.6944 L239.9435,1243.8194 L195.6055,1258.9954 L154.7555,1252.5664 L154.3745,1272.7234 L162.6055,1271.9954 C162.6055,1271.9954 133.6055,1285.9954 125.6055,1294.9954" id="Fill-86" fill="#FEE1E6" blush:i="0.0.1.0.42"/><path d="M125.6055,1294.9954 C125.6055,1294.9954 121.6055,1307.9954 125.6055,1310.9954 C129.6055,1313.9954 221.6055,1268.9954 221.6055,1268.9954 C221.6055,1268.9954 127.5445,1313.4814 126.0745,1308.2384 C124.6055,1302.9954 125.6055,1294.9954 125.6055,1294.9954" id="Fill-88" fill="#9A3E1F" blush:i="0.0.1.0.43"/><path d="M195.500735,1258.5065 L195.710265,1259.4843 C192.967041,1260.07213 189.90637,1260.9571 186.584244,1262.1009 C183.731827,1263.08299 180.732334,1264.24003 177.636798,1265.53619 C174.030494,1267.04622 170.481758,1268.66447 167.143787,1270.28269 L166.169874,1270.75786 C165.696824,1270.99017 165.244969,1271.21432 164.815813,1271.42925 L163.324536,1272.18566 L162.838373,1272.43786 L162.372627,1271.55294 L163.535529,1270.95484 L164.806713,1270.31614 C165.40199,1270.01997 166.03679,1269.70803 166.707555,1269.38285 C170.061015,1267.75713 173.626059,1266.13144 177.25057,1264.61378 C180.365,1263.30971 183.384375,1262.145 186.258701,1261.15538 C189.357988,1260.0883 192.236267,1259.24292 194.852233,1258.64957 L195.500735,1258.5065 Z" id="Stroke-90" fill="#9A3E1F" fill-rule="nonzero" blush:i="0.0.1.0.44"/><path d="M193.6055,1554.9954 C193.6055,1554.9954 298.3775,1554.9824 317.4915,1549.9894 C317.4915,1549.9894 332.6055,1547.9954 305.6055,1531.9954 C278.6055,1515.9954 225.6055,1517.9954 223.6055,1518.9954 C221.6055,1519.9954 186.6055,1545.9954 193.6055,1554.9954" id="Fill-92" fill="#F0B6AF" blush:i="0.0.1.0.45"/><path d="M162.6055,1503.9954 C162.6055,1503.9954 169.9705,1458.4034 181.7885,1453.6994 C193.6055,1448.9954 223.6055,1436.9954 223.6055,1436.9954 C223.6055,1436.9954 267.6055,1434.9954 269.6055,1435.9954 C271.6055,1436.9954 295.6055,1455.9954 295.6055,1455.9954 C295.6055,1455.9954 317.6055,1467.9954 317.6055,1493.9954 C317.6055,1519.9954 223.6055,1510.9954 223.6055,1510.9954 L162.6055,1503.9954 Z" id="Fill-94" fill="#F3CDD5" blush:i="0.0.1.0.46"/><g id="Group-98" transform="translate(96.000000, 1417.590000)" blush:i="0.0.1.0.47"><mask id="lower-bodystandingdancing-mask-4" fill="#fff" blush:i="0.0.1.0.47.0"><use xlink:href="#lower-bodystandingdancing-path-3" blush:i="0.0.1.0.47.0.0"/></mask><g id="Clip-97" blush:i="0.0.1.0.47.1"/><path d="M3.6055,0.4054 C3.6055,0.4054 -1.3945,66.4054 1.6055,75.4054 C4.6055,84.4054 12.6055,87.4054 12.6055,113.4054 C12.6055,139.4054 74.6055,141.4054 97.6055,137.4054 C120.6055,133.4054 157.6055,108.4054 190.6055,120.4054 C223.6055,132.4054 224.6055,134.4054 226.6055,131.4054 C228.6055,128.4054 229.6055,81.4054 225.6055,74.4054 C221.6055,67.4054 205.6055,41.4054 142.6055,58.4054 C79.6055,75.4054 19.2625,86.7114 18.9345,59.5584 C18.6055,32.4054 10.6055,10.4054 3.6055,0.4054" id="Fill-96" fill="#FEE1E6" mask="url(#lower-bodystandingdancing-mask-4)" blush:i="0.0.1.0.47.2"/></g><g id="Group-101" transform="translate(0.000000, 1226.590000)" blush:i="0.0.1.0.48"><mask id="lower-bodystandingdancing-mask-6" fill="#fff" blush:i="0.0.1.0.48.0"><use xlink:href="#lower-bodystandingdancing-path-5" blush:i="0.0.1.0.48.0.0"/></mask><g id="Clip-100" blush:i="0.0.1.0.48.1"/><path d="M124.6055,0.4054 C124.6055,0.4054 131.6055,8.4054 127.6055,19.4054 C127.6055,19.4054 113.6055,14.4054 107.6055,42.4054 C101.6055,70.4054 126.6055,185.4054 105.6055,231.4054 C84.6055,277.4054 4.6055,272.4054 4.6055,272.4054 C4.6055,272.4054 -6.3945,270.4054 5.6055,261.4054 C5.6055,261.4054 58.6055,267.4054 85.6055,238.4054 C112.6055,209.4054 100.6055,135.4054 96.6055,94.4054 C92.6055,53.4054 89.6055,6.4054 124.6055,0.4054" id="Fill-99" fill="#FEE1E6" mask="url(#lower-bodystandingdancing-mask-6)" blush:i="0.0.1.0.48.2"/></g></g></g></g><g id="Upper Body" transform="translate(376.000000, 277.000000) scale(1 1)" blush:width="1578" blush:height="1152" blush:component="Upper Body" blush:i="0.1" blush:value="Coffee and Phone"><g id="Upper Body/Coffee and Phone" stroke="none" stroke-width="1" fill="none" fill-rule="evenodd" blush:i="0.1.0"><path d="M724.954254,220 C724.954254,220 721.26343,301.153386 673.924004,329.799638 C630.972611,355.790794 721.968632,506.610475 819.857852,497.613536 C873.442212,492.688212 886,346.158072 886,346.158072 C886,346.158072 842.733964,337.796917 858.715877,271.819367 L724.954254,220 Z" id="Neck" fill="#f6cbc3" blush:color="Skin-500" blush:i="0.1.0.0"/><path d="M803.337113,302.515641 C739.876612,294.840687 694.077698,253.11575 687.664652,183.898064 C669.216286,186.83496 664.86504,138.764927 670.003065,123.322958 C675.146083,107.858975 691.933027,116.900812 691.933027,116.900812 C692.862251,114.457234 693.652358,111.898916 694.303348,109.225857 C722.02532,-4.48555283 799.669805,0.0243586862 799.669805,0.0243586862 C942.344355,7.45715716 908.914243,153.120195 900.762895,191.763142 C892.610548,230.410091 864.683894,309.927426 803.337113,302.515641 Z" id="Head" fill="#f6cbc3" blush:color="Skin-500" blush:i="0.1.0.1"/><g id="Group-31" transform="translate(252.000000, 332.000000)" blush:i="0.1.0.2"><path d="M124.228038,244 C11.2352329,423.00307 -24.4113903,531.60947 17.2881683,569.8192 C58.9877269,608.02893 138.53656,561.548058 255.934668,430.376584 C249.88449,401.088818 234.264802,369.134178 209.075603,334.512664 C183.886404,299.89115 155.603882,269.720262 124.228038,244 Z" id="Path" fill="#f6cbc3" blush:color="Skin-500" blush:i="0.1.0.2.0"/><g id="Group-3" transform="translate(61.000000, 0.170000)" fill="#F9C818" blush:i="0.1.0.2.1"><path d="M775.3187,371.0099 L692.8487,361.4099 C692.8487,361.4099 713.9487,645.2899 706.0187,645.2899 C701.759788,645.2899 602.695622,699 463.869422,699 C357.218623,699 226.3987,663.7299 220.8687,663.4299 C220.1887,663.3899 219.5287,662.9299 218.8987,662.0799 C220.6787,642.4999 222.0887,607.8799 223.5187,569.6499 C224.5187,542.8299 225.5387,514.2399 226.7087,487.8299 C227.7987,463.2599 229.0187,440.5799 230.4887,422.9599 C236.8887,346.1099 232.4587,275.9799 232.4587,275.9799 L200.8787,361.6799 L0.6787,288.7399 C0.6787,288.7399 67.5287,191.3099 147.2287,106.5709 C226.2987,22.4899 353.1187,1.1599 355.0987,0.8399 C355.1087,0.8299 355.1187,0.8299 355.1187,0.8299 C355.1187,0.8299 347.9987,116.8299 467.9687,125.7399 C567.7187,133.1499 572.8887,13.5899 572.8887,13.5899 C572.8887,13.5899 689.4887,44.0299 722.9387,72.5599 C756.3887,101.0899 903.9587,295.8799 903.9587,300.7999 C903.9587,305.7199 775.3187,371.0099 775.3187,371.0099 Z" id="Fill-1" blush:i="0.1.0.2.1.0"/></g><path d="M287.7087,488.0002 C286.5387,514.4102 285.5187,543.0002 284.5187,569.8192 C284.2887,551.6492 285.0087,525.5202 287.7087,488.0002" id="Fill-4" fill="#F9C818" blush:i="0.1.0.2.2"/><path d="M702.2694,404.5715 L597.3924,413.0945 C591.0714,413.6085 585.5294,408.9005 585.0154,402.5785 L568.2534,196.3425 C567.7404,190.0205 572.4484,184.4785 578.7704,183.9655 L683.6464,175.4415 C689.9684,174.9275 695.5104,179.6355 696.0244,185.9585 L712.7854,392.1935 C713.2994,398.5155 708.5914,404.0565 702.2694,404.5715" id="Fill-6" fill="#204EB2" blush:i="0.1.0.2.3"/><path d="M712.9597,398.8557 L607.7047,407.4107 C601.4877,407.9167 596.0377,403.2857 595.5317,397.0677 L579.3497,197.9667 C578.8447,191.7507 583.4757,186.2997 589.6927,185.7947 L694.9477,177.2407 C701.1647,176.7347 706.6147,181.3657 707.1207,187.5837 L723.3027,386.6827 C723.8077,392.9007 719.1767,398.3507 712.9597,398.8557" id="Fill-8" fill="#1F9BEB" blush:i="0.1.0.2.4"/><path d="M695.2557,199.9397 C695.7407,205.9117 691.2937,211.1457 685.3217,211.6307 C679.3507,212.1167 674.1157,207.6687 673.6307,201.6967 C673.1457,195.7257 677.5927,190.4917 683.5647,190.0057 C689.5357,189.5207 694.7707,193.9677 695.2557,199.9397" id="Fill-10" fill="#204EB2" blush:i="0.1.0.2.5"/><g id="Group-14" transform="translate(597.000000, 271.170000)" fill="#f6cbc3" blush:color="Skin-500" blush:i="0.1.0.2.6"><path d="M77.4915,120.4122 C77.4915,120.4122 24.8945,131.8762 24.5575,113.6692 C24.5575,113.6692 60.2965,98.8342 68.3885,99.5082 C76.4805,100.1832 113.9055,104.5652 113.9055,104.5652 L67.7135,81.6392 L21.8595,95.8002 C21.8595,95.8002 11.4075,96.4742 6.6875,89.0562 C1.9675,81.6392 7.3615,77.2562 7.3615,77.2562 L67.3765,57.3632 C67.3765,57.3632 69.3995,50.9572 54.2275,50.2822 C39.0545,49.6082 5.6755,47.2482 5.6755,47.2482 C5.6755,47.2482 -1.7415,40.8422 1.6295,29.3782 C5.0015,17.9152 23.8825,21.9612 23.8825,21.9612 C23.8825,21.9612 13.4305,11.8462 29.2775,0.7202 C29.2775,0.7202 77.8285,2.0682 95.6985,13.1942 C113.5675,24.3212 235.8865,99.4262 235.8865,99.4262 L331.0955,49.4172 C451.590946,196.91838 483.559113,284.305469 427,311.578469 C370.440887,338.851469 253.938054,275.12938 77.4915,120.4122 Z" id="Fill-12" blush:i="0.1.0.2.6.0"/></g><path d="M727.306,325.2717 L679.503,298.1827 L619.978,291.8047 L620.404,287.8287 L680.341,294.2507 C680.613,294.2787 680.876,294.3637 681.114,294.4987 L729.278,321.7917 L727.306,325.2717 Z" id="Fill-15" fill="#000" blush:i="0.1.0.2.7"/><polygon id="Fill-17" fill="#000" points="919.1846 425.2678 804.9306 353.4728 807.0586 350.0858 921.3126 421.8808" blush:i="0.1.0.2.8"/><polygon id="Fill-17" fill="#000" transform="translate(144.427192, 377.066865) rotate(-64.000000) translate(-144.427192, -377.066865)" points="200.490192 414.657865 86.2361924 342.862865 88.3641924 339.475865 202.618192 411.270865" blush:i="0.1.0.2.9"/><path d="M723.4331,347.2365 C723.1311,347.0325 693.1771,326.7545 685.3661,323.4995 C679.4071,321.0165 667.4941,325.5465 663.4071,327.5025 L661.6811,323.8925 C662.3471,323.5755 678.0911,316.1325 686.9041,319.8075 C695.0851,323.2155 724.4321,343.0815 725.6771,343.9255 L723.4331,347.2365 Z" id="Fill-19" fill="#000" blush:i="0.1.0.2.10"/><polygon id="Fill-21" fill="#f6cbc3" points="713.1401 268.1242 742.6541 313.2642 714.5871 295.6132" blush:color="Skin-500" blush:i="0.1.0.2.11"/><polygon id="Fill-23" fill="#000" points="741.5894 314.9572 713.5224 297.3072 715.6514 293.9202 743.7184 311.5702" blush:i="0.1.0.2.12"/><path d="M349.7,425.014 L314.555,424.325 C277.55,423.599 248.139,393.011 248.865,356.006 L251.062,244 L410.887,247.136 L408.507,368.469 C407.883,400.323 381.554,425.639 349.7,425.014" id="Fill-27" fill="#FFF" blush:i="0.1.0.2.13"/></g><g id="Group" transform="translate(455.000000, 614.711100)" blush:i="0.1.0.3"><path d="M44.5615768,2.84217094e-14 C44.5615768,2.84217094e-14 30.1385768,9.272 25.5025768,14.938 C20.8665768,20.604 24.9875768,21.635 14.6855768,32.452 C4.38357684,43.27 -14.1604232,70.57 18.2905768,112.294 C50.7435768,154.018 61.5605768,150.411 74.9535768,143.2 C88.3455768,135.988 89.8915768,130.838 115.131577,128.262 C140.371577,125.687 164.581577,100.961 164.066577,94.78 L163.551577,88.599 C163.551577,88.599 186.730577,79.842 185.186577,70.055 C183.640577,60.268 176.944577,61.298 176.944577,61.298 C176.944577,61.298 181.580577,56.662 177.974577,48.42 C174.368577,40.179 157.370577,41.724 137.795577,44.3 C118.222577,46.875 67.7415768,57.177 64.6505768,55.117 C61.5605768,53.057 62.5905768,49.966 74.4375768,48.42 C86.2855768,46.875 134.190577,46.36 134.190577,32.967 C134.190577,19.574 119.767577,16.999 91.9515768,17.514 C64.1355768,18.029 58.9845768,16.483 52.2885768,19.06 L45.5915768,21.635 L44.5615768,2.84217094e-14 Z" id="Fill-12" fill="#f6cbc3" blush:color="Skin-500" blush:i="0.1.0.3.0"/><path d="M177.350177,61.2402 C177.350177,61.2402 178.830177,60.1722 167.807177,64.3812 C163.793177,65.9132 158.133177,67.5122 150.159177,69.0242 C120.282177,74.6902 73.4081768,84.9932 58.9851768,87.0532 C44.5611768,89.1142 56.4091768,92.2042 89.3761768,85.5082 C122.343177,78.8112 161.588177,69.8282 163.350177,69.2402 C166.350177,68.2402 175.350177,65.2402 177.350177,61.2402" id="Fill-14" fill="#000" blush:i="0.1.0.3.1"/><path d="M152.733877,91.6895 C152.733877,91.6895 128.349877,100.2405 116.349877,103.2405 C103.608877,106.4255 94.0118768,110.7485 91.4368768,106.6275 C88.8608768,102.5065 85.7698768,101.4765 85.7698768,101.4765 L81.6498768,106.1125 C81.6498768,106.1125 82.3498768,111.2405 80.1038768,111.7785 C76.0968768,112.7395 68.2558768,114.3545 68.2558768,114.3545 C68.2558768,114.3545 68.3498768,117.2405 92.3498768,112.2405 C98.3048768,111.0005 109.349877,109.2405 116.349877,107.2405 C122.788877,105.4005 146.037877,99.4165 149.128877,96.8405 C152.218877,94.2645 152.733877,91.6895 152.733877,91.6895" id="Fill-16" fill="#000" blush:i="0.1.0.3.2"/><path d="M77.0131768,89.1143 C77.0131768,89.1143 76.6331768,109.8573 82.4891768,109.5303 C88.3461768,109.2033 90.4061768,109.2033 91.4361768,107.6573 C92.4671768,106.1123 89.8911768,100.9613 89.8911768,95.2953 C89.8911768,89.6293 89.8911768,87.0533 85.2551768,87.5683 C80.6191768,88.0843 77.5281768,88.0843 77.0131768,89.1143" id="Fill-18" fill="#F9C818" blush:i="0.1.0.3.3"/></g></g></g><g id="Expression" transform="translate(1098.000000, 360.000000) scale(1 1)" fill="#000" blush:width="202" blush:height="224" blush:component="Expression" blush:i="0.2" blush:value="Happy"><g id="Expression/Happy" stroke="none" stroke-width="1" fill="none" fill-rule="evenodd" blush:i="0.2.0"><g id="Group-124" transform="translate(25.000000, 52.000000)" fill="#000" fill-rule="nonzero" blush:i="0.2.0.0"><path d="M98.9388073,0.515726772 L102.747593,1.73767323 L102.375135,2.93095324 C102.075892,3.9043293 101.742122,5.01790967 101.382468,6.25291663 C100.354215,9.78380887 99.3257634,13.5761133 98.3662837,17.478955 C97.2996742,21.8175645 96.3854385,26.0250163 95.6702376,29.9976992 L95.4631649,31.1740325 C93.7257688,41.2776329 93.4803733,48.9926374 95.0328764,53.1417647 L95.1244408,53.3771728 C104.002358,75.340079 91.9464166,86.4779502 66.6424816,78.6786942 L65.8716485,78.4365483 L67.0907515,74.6268517 C89.8846425,81.9208968 99.0260452,73.7026714 91.4159925,54.8763096 C89.3210345,49.6942966 89.6433125,40.8993486 91.7335247,29.288974 C92.4647551,25.2272527 93.3964651,20.9393815 94.4819426,16.5240234 C95.3476055,13.0027971 96.2678852,9.57278889 97.1943734,6.33814281 L97.5420029,5.13451153 C97.7507758,4.41761123 97.9510908,3.74056192 98.1413397,3.10683734 L98.6297394,1.50244969 L98.9388073,0.515726772 Z" id="Stroke-114" blush:i="0.2.0.0.0"/><path d="M0.1850015,153.534088 L2.1419985,150.045512 L2.85620174,150.434727 L3.51128674,150.782909 C4.50308988,151.305335 5.6321651,151.880908 6.88714027,152.498006 L7.43266178,152.764985 C11.6537624,154.821142 16.3218862,156.878362 21.3004212,158.797989 C32.7483158,163.212076 44.0600582,166.224884 54.584272,167.202241 C59.3535856,167.645156 63.8735301,167.656119 68.1063644,167.201856 L68.9490919,167.10479 L69.4379081,171.07481 C64.6629697,171.662733 59.5745075,171.682884 54.2143935,171.185103 C43.2765951,170.169337 31.6251616,167.066055 19.8613669,162.530163 C14.7706849,160.567294 9.99959664,158.464698 5.68097489,156.361037 L4.04785364,155.55429 C3.35348222,155.206284 2.70158001,154.872883 2.09423579,154.556252 L0.962732129,153.958187 L0.1850015,153.534088 Z" id="Stroke-122" blush:i="0.2.0.0.1"/></g><g id="Group-16" transform="translate(27.000000, 30.000000)" fill="#000" blush:i="0.2.0.1"><path d="M70.0371,131.9951 C51.1661,131.9951 36.9381,123.3511 36.2701,122.9381 C34.8611,122.0681 34.4251,120.2191 35.2961,118.8091 C36.1651,117.4011 38.0141,116.9631 39.4241,117.8341 C39.7061,118.0061 56.4191,128.0481 76.5681,125.6031 C78.2011,125.4051 79.7071,126.5751 79.9081,128.2201 C80.1081,129.8641 78.9361,131.3601 77.2911,131.5591 C74.8141,131.8611 72.3881,131.9951 70.0371,131.9951" id="Fill-3" transform="translate(57.388937, 124.690582) rotate(15.000000) translate(-57.388937, -124.690582)" blush:i="0.2.0.1.0"/><path d="M78.8252,103.1664 C74.7822,103.1664 69.7382,102.3754 63.4432,100.3614 L64.6612,96.5514 C76.3852,100.3024 85.0452,99.9964 89.0462,95.6874 C92.4492,92.0204 92.4282,85.3134 88.9872,76.8014 C86.6522,71.0264 87.2292,60.0734 90.7022,44.2454 C93.2432,32.6624 96.4772,22.5414 96.5102,22.4404 L100.3182,23.6624 C96.8112,34.5954 88.6062,65.1874 92.6952,75.3024 C97.8932,88.1604 95.1742,94.9644 91.9772,98.4084 C89.6972,100.8664 85.7182,103.1664 78.8252,103.1664" id="Fill-5" blush:i="0.2.0.1.1"/><g id="Group-9" transform="translate(0.000000, 0.956000)" blush:i="0.2.0.1.2"><path d="M62.1387,19.4316 C61.5377,19.4316 60.9257,19.3316 60.3267,19.1226 C54.4907,17.0866 37.6337,11.6746 29.8217,11.0966 C22.4657,10.5516 11.2427,14.1856 7.5387,15.6326 C4.7097,16.7366 1.5207,15.3416 0.4147,12.5146 C-0.6923,9.6866 0.7007,6.4986 3.5277,5.3896 C4.1637,5.1406 19.2597,-0.7164 30.6337,0.1266 C41.4887,0.9306 63.0387,8.4186 63.9507,8.7376 C66.8187,9.7386 68.3317,12.8746 67.3317,15.7426 C66.5397,18.0106 64.4127,19.4316 62.1387,19.4316" id="Fill-7" blush:i="0.2.0.1.2.0"/></g><path d="M154.6772,39.1645 C153.5752,39.1645 152.4632,38.8265 151.5062,38.1245 C148.4472,35.8845 139.0022,29.8175 132.1372,28.6695 C124.8122,27.4455 107.9602,28.8295 102.0842,29.4645 C99.1372,29.7795 96.4882,27.6525 96.1692,24.7055 C95.8492,21.7575 97.9802,19.1085 100.9272,18.7895 C101.8492,18.6895 123.6282,16.3615 133.9072,18.0795 C144.7152,19.8855 157.3282,29.0775 157.8602,29.4685 C160.2492,31.2235 160.7642,34.5835 159.0092,36.9735 C157.9572,38.4055 156.3282,39.1645 154.6772,39.1645" id="Fill-10" blush:i="0.2.0.1.3"/><path d="M51.6362,49.1289 C50.9112,49.1289 50.1852,48.8679 49.6092,48.3389 C49.5712,48.3049 44.6242,43.9129 37.4832,44.1789 C30.0942,44.4519 25.1892,48.0669 25.1402,48.1029 C23.8182,49.0929 21.9392,48.8329 20.9442,47.5169 C19.9472,46.1999 20.1962,44.3309 21.5082,43.3279 C21.7642,43.1319 27.8862,38.5299 37.2612,38.1829 C46.9102,37.8359 53.3942,43.6699 53.6652,43.9189 C54.8862,45.0389 54.9682,46.9369 53.8472,48.1569 C53.2562,48.8019 52.4472,49.1289 51.6362,49.1289" id="Fill-12" blush:i="0.2.0.1.4"/><path d="M135.7539,58.2724 C135.0289,58.2724 134.3029,58.0114 133.7269,57.4824 C133.6889,57.4484 128.7419,53.0504 121.5999,53.3224 C114.2309,53.5944 109.3169,57.2014 109.2699,57.2374 C107.9529,58.2444 106.0699,57.9924 105.0639,56.6764 C104.0579,55.3604 104.3089,53.4774 105.6249,52.4714 C105.8809,52.2754 112.0039,47.6724 121.3789,47.3264 C131.0239,46.9814 137.5119,52.8134 137.7829,53.0624 C139.0039,54.1824 139.0859,56.0804 137.9649,57.3004 C137.3739,57.9454 136.5649,58.2724 135.7539,58.2724" id="Fill-14" blush:i="0.2.0.1.5"/></g></g></g><g id="Hairstyle" transform="translate(607.000000, 33.000000) scale(1 1)" blush:width="826" blush:height="747" blush:component="Hairstyle" blush:i="0.3" blush:value="Curly Bun"><defs blush:i="0.3.0"><polygon id="hairstylecurly-bun-path-1" points="0.328028164 0.405 215.919 0.405 215.919 152.988863 0.328028164 152.988863" blush:i="0.3.0.0"/><polygon id="hairstylecurly-bun-path-3" points="0 0.70825307 250.5147 0.70825307 250.5147 222 0 222" blush:i="0.3.0.1"/></defs><g id="Hairstyle/Curly Bun" stroke="none" stroke-width="1" fill="none" fill-rule="evenodd" blush:i="0.3.1"><g id="Group-11" transform="translate(434.000000, 48.000000)" blush:i="0.3.1.0"><g id="Group-3" transform="translate(49.000000, 0.595000)" blush:i="0.3.1.0.0"><mask id="hairstylecurly-bun-mask-2" fill="#fff" blush:i="0.3.1.0.0.0"><use xlink:href="#hairstylecurly-bun-path-1" blush:i="0.3.1.0.0.0.0"/></mask><g id="Clip-2" blush:i="0.3.1.0.0.1"/><path d="M177.9641,151.0493 C177.9641,151.0493 173.9001,141.6203 196.0491,140.5903 C218.1991,139.5603 226.9561,94.2313 195.0191,74.1413 C163.0821,54.0523 197.5951,32.9333 148.6591,7.6933 C99.7241,-17.5477 75.5141,30.8723 75.5141,30.8723 C75.5141,30.8723 24.0041,10.7833 5.9751,51.9923 C-12.0539,93.2003 18.8521,109.6843 18.8521,109.6843 C18.8521,109.6843 -1.7519,123.5923 14.7321,140.5903 C31.2151,157.5893 75.6971,138.6983 83.0751,147.8863 C90.4521,157.0743 177.9641,151.0493 177.9641,151.0493" id="Fill-1" fill="#0f0f0f" mask="url(#hairstylecurly-bun-mask-2)" blush:color="Hair-500" blush:i="0.3.1.0.0.2"/></g><path d="M78.8482,161.0855 C78.8482,161.0855 94.4382,132.3665 131.5252,129.6835 C168.6132,127.0005 185.2512,140.1725 189.5522,161.0855 C193.8532,181.9985 78.8482,161.0855 78.8482,161.0855" id="Fill-4" fill="#FFF" blush:i="0.3.1.0.1"/><g id="Group-8" transform="translate(0.000000, 148.595000)" blush:i="0.3.1.0.2"><mask id="hairstylecurly-bun-mask-4" fill="#fff" blush:i="0.3.1.0.2.0"><use xlink:href="#hairstylecurly-bun-path-3" blush:i="0.3.1.0.2.0.0"/></mask><g id="Clip-7" blush:i="0.3.1.0.2.1"/><path d="M22.3227,199.6632 C21.2927,195.1992 24.0400333,189.876533 30.5647,183.6952 C40.3517,174.4232 36.7457,131.6692 59.9257,123.9422 C83.1057,116.2162 121.7387,76.5532 139.7667,76.5532 C157.7957,76.5532 188.7027,93.0362 201.0647,92.0062 C213.4277,90.9762 229.9107,115.7012 230.9407,128.5782 C231.9707,141.4562 248.8557,164.4952 238.3527,222.0002 C238.3527,222.0002 250.5147,202.7542 250.5147,180.0892 C250.5147,157.4242 247.4247,152.2732 248.9697,119.8222 C250.5147,87.3702 246.9097,53.8882 223.2147,38.4352 C199.5197,22.9812 184.5817,-5.3488 148.0087,1.8622 C111.4367,9.0742 83.1057,0.3172 61.4707,23.4972 C45.5577,40.5472 21.8077,52.3432 16.6567,87.3702 C11.8577,120.0022 -14.6383,135.0912 11.0537,170.2102 C11.0537,170.2102 22.3227,188.3312 22.3227,199.6632 Z" id="Fill-6" fill="#0f0f0f" mask="url(#hairstylecurly-bun-mask-4)" blush:color="Hair-500" blush:i="0.3.1.0.2.2"/></g><path d="M81.5017,158.7446 C81.5017,158.7446 88.3227,130.4856 133.3227,127.4856 C178.3227,124.4856 187.0857,143.8696 189.2047,159.6776 C189.2047,159.6776 170.7157,147.3106 147.0197,152.3986 C123.3227,157.4856 96.6807,154.0036 81.5017,158.7446" id="Fill-9" fill="#56ACF6" blush:i="0.3.1.0.3"/></g></g></g><g id="Accessories" transform="translate(1051.000000, 393.000000) scale(1 1)" fill="#000" blush:width="234" blush:height="78" blush:component="Accessories" blush:i="0.4" blush:value="None"><g id="Accessories/None" stroke="none" stroke-width="1" fill="none" fill-rule="evenodd" fill-opacity="0" blush:i="0.4.0"/></g><g id="Facial Hair" transform="translate(1061.000000, 394.000000) scale(1 1)" blush:width="212" blush:height="211" blush:component="Facial Hair" blush:i="0.5" blush:value="None"><g id="Facial Hair/None" stroke="none" stroke-width="1" fill="none" fill-rule="evenodd" fill-opacity="0" blush:i="0.5.0"/></g></g></svg>