<svg xmlns="http://www.w3.org/2000/svg" viewBox="0 0 76.1 117.38"><g fill="#15171d"><path d="M50.07 100.7l-.4.15zm.03 0z"/><path d="M50.82 96.9a10.45 10.45 0 0 1-.72 3.81 10.47 10.47 0 0 0-1.51-20H26.16A20.21 20.21 0 0 1 9.21 49.53h0a20.22 20.22 0 0 0 11 37.18h22.43a10.47 10.47 0 0 1 8.18 10.18zm-4.52 14.54v-10s-3.7 6-5.9 6h0v10h.15a20.17 20.17 0 0 0 16.93-9.2h0a20.07 20.07 0 0 1-11 3.26zM16.55 56.6h0z"/><path d="M38.6 55.12h1.84l6-5.17H26.2a10.43 10.43 0 0 0-9.64 6.65 10.36 10.36 0 0 1 3.7-.71H35.6v-.77z"/><path d="M55.8 64.73h0v.06H35.6v-8.9l-5.94 5.17v9.68h20.18v-.06a20.21 20.21 0 0 0 17-9.2h0a20.06 20.06 0 0 1-11.02 3.25zM35.6 14.08h4l5.95-5.35H35.6V.4l-5.94 6v8.3h6c-.05-.23-.06-.42-.06-.6z"/><path d="M49.7 40.23h0a10.42 10.42 0 0 1 10.46 10.43 10.27 10.27 0 0 1-.71 3.77 10.42 10.42 0 0 0-3.77-20.14h0a20.21 20.21 0 0 1-20-19.66c0 1.86-6 5.35-6 5.35h0a20.21 20.21 0 0 0 20.02 20.25z"/><path d="M59.46,54.43Z"/></g><path d="M56 24.23h0A10.42 10.42 0 0 1 45.57 14h-9.92a20.22 20.22 0 0 0 20.07 20.21h0a10.43 10.43 0 0 1 .07 20.85h0-20.14v9.68h20.18v-.06h.05A20.225 20.225 0 0 0 56 24.23zM46.52 70.8l-20.15-.06a10.43 10.43 0 0 1-.07-20.85h20.14v-9.7H26.26a20.23 20.23 0 1 0 0 40.45h22.4a10.47 10.47 0 0 1-2.25 20.69h0v10h.16a20.3 20.3 0 0 0 0-40.6zM35.65.3h9.9v8.3h-9.9z" fill="#ebe9e2"/></svg>