<svg xmlns="http://www.w3.org/2000/svg" viewBox="0 0 512 512"  fill-rule="evenodd" stroke-linejoin="round" stroke-miterlimit="2"><path d="M161.014 464.013c193.208 0 298.885-160.071 298.885-298.885 0-4.546 0-9.072-.307-13.578 20.558-14.871 38.305-33.282 52.408-54.374-19.171 8.495-39.51 14.065-60.334 16.527 21.924-13.124 38.343-33.782 46.182-58.102a210.55 210.55 0 0 1-66.703 25.498c-19.862-21.121-47.602-33.112-76.593-33.112-57.682 0-105.145 47.464-105.145 105.144a105.21 105.21 0 0 0 2.722 23.773c-84.418-4.231-163.18-44.161-216.494-109.752-27.724 47.726-13.379 109.576 32.522 140.226A104.26 104.26 0 0 1 20.48 194.23v1.331c.014 49.814 35.447 93.111 84.275 102.974a104.9 104.9 0 0 1-47.431 1.802c13.727 42.685 53.311 72.108 98.14 72.95a210.83 210.83 0 0 1-130.458 45.056A213.69 213.69 0 0 1 0 416.827a297.42 297.42 0 0 0 161.014 47.104" fill-rule="nonzero"/></svg>