<?xml version="1.0" encoding="UTF-8"?>
<svg width="24px" height="24px" viewBox="0 0 24 24" version="1.1" xmlns="http://www.w3.org/2000/svg" xmlns:xlink="http://www.w3.org/1999/xlink">
    <title>Group 3 Copy</title>
    <g id="Page-1" stroke="none" stroke-width="1" fill="none" fill-rule="evenodd">
        <g id="Group-3-Copy" transform="translate(12.000000, 12.000000) scale(-1, 1) translate(-12.000000, -12.000000) ">
            <polygon id="Path" points="0 0 24 0 24 24 0 24"></polygon>
            <path d="M12.5,2 C6.6935,2 2,6.6935 2,12.5 C2,18.3065 6.6935,23 12.5,23 C18.3065,23 23,18.3065 23,12.5 C23,6.6935 18.3065,2 12.5,2 Z" id="Shape" fill="#FEC155" fill-rule="nonzero"></path>
            <g id="Group-2" transform="translate(9.000000, 7.000000)">
                <polygon id="Path" fill="#15171D" points="2.41 11 1 9.59 4.59 6 1 2.41 2.41 1 7.41 6"></polygon>
                <polygon id="Path-Copy-2" fill="#FFFFFF" points="1.41 10 -1.77635684e-15 8.59 3.59 5 -1.77635684e-15 1.41 1.41 0 6.41 5"></polygon>
            </g>
        </g>
    </g>
</svg>