<svg xmlns="http://www.w3.org/2000/svg" xmlns:xlink="http://www.w3.org/1999/xlink" width="24" height="24" viewBox="0 0 24 24"><defs><path id="A" d="M18 16.6L16.6 18 13 14.4 9.4 18 8 16.6l3.6-3.6L8 9.4 9.4 8l3.6 3.6L16.6 8 18 9.4 14.4 13z"/><path id="B" d="M17 15.6L15.6 17 12 13.4 8.4 17 7 15.6l3.6-3.6L7 8.4 8.4 7l3.6 3.6L15.6 7 17 8.4 13.4 12z"/></defs><g fill-rule="evenodd"><path d="M12.5 2A10.49 10.49 0 0 0 2 12.5 10.49 10.49 0 0 0 12.5 23 10.49 10.49 0 0 0 23 12.5 10.49 10.49 0 0 0 12.5 2z" fill="#fec155" fill-rule="nonzero"/><use fill="#15171d" xlink:href="#A"/><use fill="#fff" xlink:href="#B"/></g></svg>