<svg overflow="visible" viewBox="121.44 128.75 781.83 672.16">
<g fill="var(--deep-purple)" >
<g transform="translate(271 173) scale(1)" fill="var(--deep-purple)">
<g fill="var(--deep-purple)" >
<path d="m243 42.436 2.7002 1.3292c44.18 21.854 91.996 50.858 119.68 98.345 27.737 47.594 35.346 113.67 39.748 174.39l0.26567 3.7108c4.417 61.838 5.8551 117.59-10.165 153.88-15.961 36.257-49.381 53.041-90.36 52.54-40.979-0.50081-89.567-18.396-131.07-62.407-41.562-43.983-76.04-114.08-101.51-185.44s-41.945-143.85-33.044-192.02c9.0113-48.09 43.39-71.725 80.873-76.263 37.424-4.5115 78.011 10.045 122.88 31.943z" fill="var(--deep-purple)" fillOpacity=".04"/>
</g>
</g>
<g transform="translate(123 132)">
<path d="m378.34 125.7c-1.324-0.388-2.758-0.52-4.243-0.339-4.467 0.542-8.185 4.034-8.961 8.467-0.63 3.597 0.585 6.936 2.855 9.228 0.94 0.949 1.188 2.38 0.578 3.568-3.16 6.164-7.982 14.074-12.998 25.47-14.649 33.279-24.553 68.967-64.995 78.252-35.055 8.049-58.268-25.44-41.871-56.45 13.968-26.415 43.836-32.54 62.64-53.515 17.131-19.111 19.589-48.578 44.151-61.933 7.089-3.854 15.382-5.206 23.162-3.064 18.265 5.027 20.885 24.479 12.32 38.672-3.17 5.253-6.651 8.824-9.336 10.951-0.93 0.736-2.162 1.027-3.302 0.693" fill="var(--deep-purple)"/>
<path d="m391.38 96.901c0.66087-0.49955 1.6016-0.36877 2.1011 0.2921l1.4161 1.8539 2.8407 3.6774c3.6895 4.8054 5.5645 7.477 7.5034 10.836 3.1587 5.4675 5.5932 11.533 7.3039 18.037 0.3094 1.1773 0.59592 2.3753 0.86124 3.5976 1.8129 8.3665 1.6232 13.896-2.3902 17.727-3.3401 3.1885-9.6001 5.6011-18.016 7.455-4.3251 0.95271-8.9487 1.6937-13.571 2.2495l-1.3567 0.15765c-0.8845 0.099166-1.7279 0.18656-2.5231 0.26276l-1.6192 0.1453-0.6783 0.053103c-0.82639 0.058033-1.5434-0.56484-1.6014-1.3912-0.058033-0.82639 0.56484-1.5434 1.3912-1.6014l0.87338-0.069751c0.2382-0.020267 0.49627-0.043051 0.7732-0.068434l1.1691-0.11207c1.0038-0.10032 2.0797-0.21812 3.2136-0.35447 4.5328-0.54503 9.0641-1.2712 13.284-2.2007l1.0657-0.24075c7.3693-1.7075 12.829-3.8816 15.525-6.4546 2.9653-2.8301 3.1272-7.5489 1.5298-14.921-0.25616-1.1801-0.53262-2.336-0.83079-3.4706-1.6448-6.2535-3.9799-12.071-7.0005-17.3l-0.3186-0.54638c-1.8073-3.0673-3.6795-5.6937-7.2977-10.394l-2.6867-3.4768c-0.34847-0.45304-0.65454-0.85323-0.95397-1.2475l-0.29854-0.39402c-0.49955-0.66087-0.36877-1.6016 0.2921-2.1011z" fill="var(--deep-purple)" />
<path d="m387.42 159.41c0.15066-0.81461 0.93316-1.3529 1.7478-1.2022 0.7667 0.1418 1.2886 0.84329 1.2217 1.6045l-0.019519 0.1433-5.046 27.284c-0.15066 0.81461-0.93316 1.3529-1.7478 1.2022-0.7667-0.1418-1.2886-0.84329-1.2217-1.6045l0.019519-0.1433 5.046-27.284z" fill="var(--deep-purple)" />
<path d="m489.25 82.12c0.4983-0.62754 1.3936-0.74677 2.0354-0.29586l0.11721 0.091242 15.207 13.075c0.54464 0.46828 0.67605 1.2503 0.3334 1.8659l-0.080704 0.12917-46.607 66.875c-0.063238 0.090738-0.13622 0.17406-0.21753 0.24853l-0.12805 0.10489-65.982 48.219c-0.66886 0.48879-1.6073 0.34282-2.0961-0.32603-0.46004-0.62951-0.3578-1.4978 0.21345-2.0053l0.11258-0.09078 65.778-48.07 45.69-65.56-12.997-11.175-43.457 54.731c-0.13165 0.16579-0.29651 0.30136-0.48334 0.39839l-0.14406 0.065419-44.791 17.553c-0.77131 0.30227-1.6416-0.077969-1.9439-0.84928-0.28449-0.72594 0.035597-1.5396 0.71729-1.8848l0.132-0.059102 44.415-17.407 44.176-55.634z" fill="var(--deep-purple)" />
<path d="m504.22 49.731c0.36488-0.97699 1.5786-1.2812 2.3597-0.63268l0.10371 0.094369 2.5982 2.5862c2.1583 2.1489 3.0315 5.2642 2.3201 8.2095l-0.076433 0.29392-1.9061 6.8426 1.2369 1.1125c4.5869 4.1234 5.3883 10.995 1.9205 16.056l-0.18646 0.26467-7.763 10.719c-0.48592 0.67095-1.4237 0.82094-2.0947 0.33502-0.63148-0.45734-0.8015-1.315-0.4142-1.9737l0.079173-0.12103 7.7629-10.719c2.7245-3.7625 2.2379-8.9434-1.0982-12.133l-0.21222-0.19676-1.928-1.735c-0.38806-0.34921-0.56415-0.87226-0.47312-1.3796l0.031492-0.13783 2.1551-7.7383c0.53036-1.9029 0.035994-3.9398-1.2923-5.3868l-0.17797-0.18534-0.9489-0.94411-12.154 32.543c-0.27279 0.73042-1.0543 1.1225-1.7923 0.92451l-0.13773-0.044109c-0.73042-0.27279-1.1225-1.0543-0.92451-1.7923l0.044109-0.13773 12.968-34.723z" fill="var(--deep-purple)" />
<path d="m356.79 181.81c5.3308-1.4655 9.3052-1.9258 14.444-0.98091l0.51807 0.10482c0.62004 0.13242 1.3025 0.30367 2.1279 0.54903 1.6032 0.47657 3.2576 1.1023 4.9153 1.9026 4.4282 2.1379 8.2152 5.1801 10.935 9.2968l0.28732 0.4452c0.13233 0.21033 0.34925 0.58256 0.62245 1.0974 0.44864 0.8455 0.89592 1.794 1.3133 2.8269 0.70432 1.7431 1.252 3.5498 1.5817 5.3823l0.088847 0.52585c1.3026 8.2677-0.1337 25.926-3.491 49.895-1.0625 7.5854-2.261 15.378-3.5244 23.079l-0.54521 3.2936c-0.26478 1.5855-0.52408 3.1182-0.77622 4.5907l-0.88402 5.0866-0.29537 1.6621 85.921 8.3863c0.66425 0.064787 1.2058 0.56065 1.3287 1.2166 0.99957 5.3341 0.89989 11.111-1.2418 17.376-2.2893 6.6595-6.0473 11.476-10.418 15.134-0.22606 0.1892-0.50286 0.30759-0.79581 0.3404l-9.285 1.0471c-13.61 1.5463-27.275 3.151-42.184 4.975l-34.505 4.2953c-6.942 0.8495-11.424 1.3493-14.999 1.6598l-1.5883 0.13004c-7.7852 0.5948-11.484 0.19037-15.212-1.567l-0.31501-0.15151c-9.5108-4.6889-14.304-15.173-15.725-31.633l-0.10917-1.3539c-0.86126-11.335-0.41856-21.631 1.6122-46.427l1.2336-14.923c0.17572-2.1977 0.32492-4.1389 0.46785-6.0885l0.091222-1.2571c0.50261-6.9974 0.84001-13.1 1.0196-18.847 0.025883-0.82802 0.71811-1.4783 1.5461-1.4524s1.4783 0.71811 1.4524 1.5461l-0.066226 1.9442c-0.18029 4.8967-0.47122 10.078-0.87698 15.86l-0.23608 3.2638c-0.21834 2.9377-0.45719 5.9394-0.78506 9.9022l-0.90934 10.943c-1.9704 24.148-2.3952 34.281-1.5579 45.309l0.057575 0.73532c1.2795 15.866 5.6558 25.62 14.109 29.787l0.27044 0.13005c3.1766 1.4972 6.4156 1.85 13.742 1.2866l1.5226-0.12499c2.5768-0.22385 5.6453-0.54889 9.8008-1.0368l35.495-4.4037 8.1389-0.99572c14.033-1.7053 27.031-3.2241 40.027-4.6961l6.9782-0.78659 0.031641-0.025995c3.7039-3.1906 6.899-7.3316 8.9337-12.926l0.19958-0.56428c1.7568-5.1393 2.0062-9.9249 1.3737-14.378l-0.055601-0.36768-86.398-8.4319c-0.87337-0.085256-1.4874-0.89873-1.3299-1.762l0.54049-3.018 0.62416-3.5705c0.34362-1.9869 0.7026-4.0972 1.0723-6.311 1.4593-8.7389 2.8473-17.654 4.0576-26.294l0.4161-3.0117c3.0753-22.579 4.3187-39.201 3.0047-46.461-0.29082-1.6164-0.77952-3.2287-1.4109-4.7911-0.31378-0.77654-0.64615-1.4999-0.98083-2.1578l-0.20096-0.3868c-0.23715-0.44693-0.41717-0.75583-0.51102-0.905-2.4094-3.8227-5.8743-6.6528-9.9882-8.639-1.505-0.72662-3.0101-1.2959-4.4657-1.7286-0.95524-0.28396-1.6863-0.45496-2.3444-0.58096-4.5928-0.8445-8.1616-0.43121-13.1 0.92647-2.5051 0.67918-4.9474 1.614-7.3069 2.7735-0.7435 0.36537-1.6424 0.058832-2.0078-0.68467-0.36537-0.7435-0.058832-1.6424 0.68467-2.0078 2.5279-1.2423 5.1496-2.2457 7.8399-2.9751z" fill="var(--deep-purple)" />
<path d="m498.23 288.87c0.76945-0.72755 2.0141-0.44552 2.4124 0.50567l0.047045 0.12784 1.5313 4.7938c1.4056 4.4088 0.25394 9.2233-2.9705 12.515l-0.23384 0.23254-4.182 4.052c-1.3522 1.3103-2.4242 2.8779-3.1531 4.6081l-0.16208 0.40212c-2.1307 5.5282-7.1728 9.3871-13.044 10.014l-0.24522 0.022688-15.55 3.2913c-0.7628 0.16141-1.5128-0.28794-1.7414-1.0171l-0.036624-0.13991c-0.16141-0.7628 0.28794-1.5128 1.0171-1.7414l0.13991-0.036624 15.633-3.308 0.18401-0.02715c4.7657-0.40341 8.897-3.4328 10.723-7.8342l0.1209-0.30221c0.82877-2.1521 2.0884-4.1119 3.7-5.7607l0.32699-0.32556 4.1822-4.0522c2.5077-2.4289 3.4696-6.034 2.5249-9.3779l-0.091147-0.30324-0.80552-2.5212-9.302 8.7967c-0.18207 0.17216-0.40376 0.2954-0.64437 0.35951l-0.14647 0.031287-17.783 2.879c-0.81778 0.1324-1.588-0.42322-1.7204-1.241-0.12461-0.76968 0.36023-1.4973 1.0995-1.6906l0.14151-0.029865 17.325-2.8051 10.703-10.118z" fill="var(--deep-purple)" />
<path d="m260.09 246.24c0.28921-0.7763 1.153-1.1712 1.9293-0.88196 0.73064 0.2722 1.1234 1.0534 0.92595 1.7915l-0.043998 0.13777-40.819 109.57c-3.7777 10.139 1.6415 21.404 11.902 24.696 20.649 6.6227 42.486 10.114 63.996 8.6299 27.896-1.9247 52.627-12.132 72.854-32.364l0.80801-0.81839 9e-4 -15.195c0-0.7797 0.59489-1.4204 1.3555-1.4931l0.14446-0.006867c0.7797 0 1.4204 0.59489 1.4931 1.3555l0.006867 0.14446v15.807c0 0.39016-0.15202 0.76496-0.4238 1.0449-20.995 21.625-46.864 32.506-76.032 34.519-21.935 1.5134-44.135-2.0361-65.119-8.7662-11.776-3.7782-18.045-16.602-13.925-28.247l0.12802-0.35253 40.819-109.57z" fill="var(--deep-purple)" />
<path d="m225.59 379.11c0.21384-0.80035 1.036-1.2758 1.8364-1.062 0.80035 0.21384 1.2758 1.036 1.062 1.8364-3.5939 13.451-3.5271 27.213 1.8994 40.286 6.4738 15.611 19.011 26.276 35.478 32.885 5.9553 2.3902 12.068 4.093 18.057 5.2192 2.2077 0.41511 4.28 0.72832 6.1823 0.95382l1.1081 0.12352c0.80988 0.084207 1.4972 0.14146 2.0525 0.17686 9.211 0.58952 16.732-0.53835 29.95-4.1607 27.761-7.611 56.689-19.084 87.737-36.41 1.0085-0.56281 2.2481 0.1775 2.2308 1.3323l-0.26478 16.221c-0.25256 14.211-0.5671 28.733-1.043 48.509l-1.6913 68.245c-0.52961 21.919-0.86348 37.404-1.1308 52.885l-0.20497 12.656 24.958 13.407 0.23067-1.4467c2.8067-17.6 5.6274-34.139 8.809-51.86l2.6912-14.778c2.8188-15.337 6.903-37.362 7.1061-38.468l1.2351-6.7662c3.1185-17.177 5.5407-31.282 7.8943-46.19 0.12919-0.81829 0.89727-1.3769 1.7156-1.2477s1.3769 0.89727 1.2477 1.7156l-0.54554 3.4335c-2.3717 14.832-4.8601 29.154-8.0931 46.847l-9.5941 52.074-0.063837 0.35314c-3.6583 20.254-6.8235 38.795-10 58.891-0.16134 1.0205-1.282 1.5762-2.192 1.0869l-27.621-14.839c-0.45315-0.24335-0.747-0.69919-0.78637-1.2051l-0.004356-0.13908 0.26471-16.227c0.3097-17.435 0.71276-35.336 1.3928-62.843l1.5536-62.802c0.45131-19.141 0.74385-33.337 0.98694-48.028l0.1098-6.9378-0.60946 0.33631c-29.703 16.3-57.505 27.3-84.233 34.733l-1.2924 0.35688-1.4781 0.40102c-12.614 3.3859-20.211 4.452-29.456 3.8603l-0.66958-0.0473c-2.3093-0.17832-5.3861-0.5661-9.0364-1.2525-6.1716-1.1604-12.471-2.9152-18.62-5.3834-17.157-6.8862-30.313-18.077-37.132-34.52-5.7081-13.752-5.7781-28.17-2.0268-42.21z" fill="var(--deep-purple)" />
<path d="m445.18 331.63c0.7126-0.31643 1.5396-0.032786 1.9148 0.63291l0.064904 0.12924 86.196 194.11c0.30542 0.6878 0.052533 1.4873-0.57341 1.8793l-0.12169 0.068603-26.356 13.301c-0.64797 0.32701-1.4295 0.14134-1.8639-0.42336l-0.082121-0.11795-111.38-177.34-20.301-6.7928c-0.7394-0.24741-1.1583-1.0149-0.98582-1.7593l0.039329-0.13917c0.24741-0.7394 1.0149-1.1583 1.7593-0.98582l0.13917 0.039329 20.809 6.963c0.28202 0.094368 0.52852 0.27003 0.70941 0.50332l0.084835 0.12134 110.94 176.63 23.862-12.043-85.617-192.8c-0.31643-0.7126-0.032786-1.5396 0.63291-1.9148l0.12924-0.064904z" fill="var(--deep-purple)" />
<path d="m486.99 255.93c0.3494-0.51314 0.97497-0.75405 1.5711-0.61879l0.13691 0.037938 25.437 8.356c0.88697 0.29137 1.2851 1.3052 0.8644 2.1142l-0.069288 0.1197-18.185 28.402c-0.4467 0.69767-1.3744 0.90113-2.0721 0.45443-0.65664-0.42042-0.87548-1.2669-0.52654-1.9467l0.072113-0.12536 17.14-26.773-22.525-7.4-28.301 41.566c-0.43883 0.64448-1.2912 0.8393-1.9608 0.47127l-0.12327-0.075629c-0.64448-0.43883-0.8393-1.2912-0.47127-1.9608l0.075629-0.12327 28.937-42.498z" fill="var(--deep-purple)" />
<path d="m507.66 26.678c14.147 0 25.615 11.468 25.615 25.615 0 8.4282-4.1028 16.17-10.86 20.941-0.67674 0.47782-1.6127 0.31657-2.0905-0.36017-0.47782-0.67674-0.31657-1.6127 0.36017-2.0905 5.9692-4.2146 9.5902-11.048 9.5902-18.491 0-12.49-10.125-22.615-22.615-22.615-12.49 0-22.615 10.125-22.615 22.615 0 3.8496 0.96204 7.5562 2.7722 10.857 0.39837 0.72636 0.13248 1.6381-0.59388 2.0365s-1.6381 0.13248-2.0365-0.59388c-2.0511-3.7399-3.1418-7.9421-3.1418-12.299 0-14.146 11.469-25.615 25.615-25.615z" fill="var(--deep-purple)" />
<path d="m407.33 617.92-1.158 24.906 54.589 26.007 0.465-3.847c1.038-8.575-2.891-16.995-10.128-21.709l-16.146-10.517-27.622-14.84z" fill="var(--deep-purple)"/>
<path d="m405.83 617.85-1.158 24.906c-0.02804 0.60307 0.3082 1.1642 0.85323 1.4238l54.589 26.007c0.92576 0.44105 2.0113-0.15613 2.1343-1.1742l0.465-3.847c1.1066-9.142-3.0819-18.12-10.798-23.146l-16.146-10.517-0.10878-0.064494-27.622-14.84c-0.97243-0.52244-2.157 0.14901-2.2083 1.2517zm2.8855 2.5174 25.468 13.683 16.094 10.483 0.33533 0.22298c6.5439 4.4413 10.075 12.176 9.1222 20.049l-0.21577 1.775-51.805-24.681 1.001-21.532z" fill="var(--deep-purple)" />
<path d="m505.05 540.88 10.022 15.428 55.509-26.605c-4.99-7.901-14.838-11.219-23.592-7.948l-15.584 5.824-26.355 13.301z" fill="var(--deep-purple)"/>
<path d="m530.88 526.17-0.15073 0.065965-26.355 13.301c-0.79708 0.40228-1.0684 1.4075-0.58206 2.1562l10.022 15.428c0.4106 0.63209 1.2265 0.86131 1.9062 0.53553l55.509-26.605c0.80929-0.38788 1.0991-1.3949 0.61992-2.1536-5.3694-8.5017-15.966-12.072-25.385-8.5521l-15.584 5.824zm37.461 2.9388-52.729 25.273-8.393-12.921 24.789-12.51 15.507-5.7946c7.5023-2.8033 15.874-0.36898 20.728 5.8242l0.098601 0.12838z" fill="var(--deep-purple)" />
<path d="m455.14 356.96c0.19284-0.75547 0.92772-1.2292 1.6827-1.1115l0.14167 0.029076 11.173 2.852c14.188 3.6201 23.016 17.719 20.138 32.023l-0.090811 0.4335-5.012 23.016c-0.17627 0.80946-0.97536 1.3228-1.7848 1.1465-0.76184-0.1659-1.2613-0.8835-1.1705-1.6422l0.024028-0.14261 5.012-23.016c2.7751-12.744-4.9342-25.399-17.476-28.811l-0.38152-0.10057-11.173-2.852c-0.80269-0.20489-1.2873-1.0217-1.0824-1.8244z" fill="var(--deep-purple)" />
<path d="m259.62 322.01c0.82305-0.094234 1.5667 0.49659 1.6609 1.3196 0.7428 6.4877 2.9425 12.999 7.64 19.11 4.1826 5.4411 9.5086 9.2983 15.531 11.846 3.9989 1.6919 7.5256 2.5394 10.775 2.9669 0.82135 0.10806 1.3996 0.86149 1.2915 1.6828-0.10806 0.82135-0.86149 1.3996-1.6828 1.2915-3.4954-0.45986-7.2724-1.3676-11.552-3.1784-6.4735-2.7388-12.22-6.9007-16.74-12.781-5.0732-6.6004-7.4423-13.613-8.242-20.597-0.094234-0.82305 0.49659-1.5667 1.3196-1.6609z" fill="var(--deep-purple)" />
<path d="m274.76 288.39c0.24914-0.79008 1.0916-1.2286 1.8817-0.97946s1.2286 1.0916 0.97946 1.8817c-1.9635 6.2269-2.6058 13.071-0.80313 20.565 1.6045 6.6727 4.8982 12.364 9.3608 17.143 2.9634 3.1736 5.8387 5.3834 8.6331 7.0976 0.70614 0.43319 0.92741 1.3568 0.49422 2.0629-0.43319 0.70614-1.3568 0.92741-2.0629 0.49422-3.006-1.8441-6.0855-4.2107-9.2571-7.6074-4.7972-5.1374-8.351-11.279-10.085-18.489-1.9468-8.0941-1.2551-15.465 0.85885-22.169z" fill="var(--deep-purple)" />
<polygon points="193.3 491.82 382.99 491.82 382.99 460.25 193.3 460.25" fill="var(--deep-purple)"/>
<path d="m507.67 9.9726c23.373 0 42.321 18.948 42.321 42.321 0 15.199-8.0808 28.996-20.956 36.54-0.71476 0.41882-1.6337 0.17891-2.0525-0.53585-0.41882-0.71476-0.17891-1.6337 0.53585-2.0525 11.965-7.0111 19.472-19.828 19.472-33.952 0-21.716-17.605-39.321-39.321-39.321-21.717 0-39.322 17.605-39.322 39.321 0 8.4762 2.687 16.544 7.5934 23.232 0.49002 0.66796 0.34578 1.6067-0.32218 2.0967-0.66796 0.49002-1.6067 0.34577-2.0967-0.32219-5.2809-7.1985-8.1746-15.886-8.1746-25.006 0-23.373 18.948-42.321 42.322-42.321z" fill="var(--deep-purple)" />
<path d="m77.382 123.31h-23.058c-30.555 0-55.324 24.769-55.324 55.323 0 30.554 24.77 55.324 55.324 55.324h76.882c0.82843 0 1.5-0.67157 1.5-1.5v-53.824c0-30.554-24.769-55.323-55.324-55.323zm0.86527 3.007c28.499 0.46205 51.459 23.708 51.459 52.316v52.324h-75.382c-28.898 0-52.324-23.426-52.324-52.324 0-28.897 23.426-52.323 52.324-52.323h23.058l0.86527 0.00701z" fill="var(--deep-purple)" />
<path d="m86.744 162.38c0.82843 0 1.5 0.67157 1.5 1.5 0 0.7797-0.59489 1.4204-1.3555 1.4931l-0.14446 0.006867h-41.782c-0.82843 0-1.5-0.67157-1.5-1.5 0-0.7797 0.59489-1.4204 1.3555-1.4931l0.14446-0.006867h41.782z" fill="var(--deep-purple)" />
<path d="m86.744 188.31c0.82843 0 1.5 0.67157 1.5 1.5 0 0.7797-0.59489 1.4204-1.3555 1.4931l-0.14446 0.006867h-41.782c-0.82843 0-1.5-0.67157-1.5-1.5 0-0.7797 0.59489-1.4204 1.3555-1.4931l0.14446-0.006867h41.782z" fill="var(--deep-purple)" />
<path d="m77.229 312.02h76.882c29.726 0 53.824-24.098 53.824-53.824s-24.098-53.823-53.824-53.823h-23.058c-29.726 0-53.824 24.097-53.824 53.823v53.824z" fill="var(--deep-purple)"/>
<path d="m127.37 258.2c0 3.891-3.154 7.045-7.045 7.045s-7.045-3.154-7.045-7.045 3.154-7.045 7.045-7.045 7.045 3.154 7.045 7.045" fill="var(--white)"/>
<path d="m149.63 258.2c0 3.891-3.153 7.045-7.045 7.045-3.891 0-7.044-3.154-7.044-7.045s3.153-7.045 7.044-7.045c3.892 0 7.045 3.154 7.045 7.045" fill="var(--white)"/>
<path d="m171.89 258.2c0 3.891-3.154 7.045-7.045 7.045s-7.045-3.154-7.045-7.045 3.154-7.045 7.045-7.045 7.045 3.154 7.045 7.045" fill="var(--white)"/>
<path d="m656.83 124.66h-66.732c-8.3226 0-15.069 6.7457-15.069 15.068 0 8.3216 6.7467 15.068 15.069 15.068h66.732c8.3214 0 15.068-6.7466 15.068-15.068 0-8.3221-6.7462-15.068-15.068-15.068zm-66.732 3h66.732c6.6649 0 12.068 5.4028 12.068 12.068 0 6.6646-5.4034 12.068-12.068 12.068h-66.732c-6.6654 0-12.069-5.4033-12.069-12.068 0-6.6653 5.4032-12.068 12.069-12.068z" fill="var(--deep-purple)" />
<path d="m656.83 287.03h-66.732c-8.3224 0-15.069 6.7466-15.069 15.069 0 8.3216 6.7467 15.068 15.069 15.068h66.732c8.3214 0 15.068-6.7466 15.068-15.068 0-8.3223-6.7464-15.069-15.068-15.069zm-66.732 3h66.732c6.6647 0 12.068 5.4036 12.068 12.069 0 6.6646-5.4034 12.068-12.068 12.068h-66.732c-6.6654 0-12.069-5.4033-12.069-12.068 0-6.6656 5.4034-12.069 12.069-12.069z" fill="var(--deep-purple)" />
<path d="m724.11 153.3h-21.653c-7.493 0-13.568-6.075-13.568-13.568 0-7.494 6.075-13.568 13.568-13.568h21.653c7.494 0 13.568 6.074 13.568 13.568 0 7.493-6.074 13.568-13.568 13.568" fill="var(--deep-purple)"/>
<path d="m724.11 124.66h-21.653c-8.3218 0-15.068 6.7459-15.068 15.068 0 8.3214 6.7466 15.068 15.068 15.068h21.653c8.3221 0 15.068-6.7462 15.068-15.068 0-8.3224-6.7456-15.068-15.068-15.068zm-21.653 3h21.653c6.6656 0 12.068 5.4024 12.068 12.068 0 6.6649-5.4028 12.068-12.068 12.068h-21.653c-6.6646 0-12.068-5.4034-12.068-12.068 0-6.6652 5.4031-12.068 12.068-12.068z" fill="var(--deep-purple)" />
<path d="m685.13 261.54h-95.038c-7.493 0-13.568-6.074-13.568-13.567 0-7.495 6.075-13.569 13.568-13.569h95.038c7.493 0 13.568 6.074 13.568 13.569 0 7.493-6.075 13.567-13.568 13.567" fill="var(--deep-purple)"/>
<path d="m685.13 232.91h-95.038c-8.3219 0-15.068 6.7461-15.068 15.069 0 8.3213 6.7464 15.067 15.068 15.067h95.038c8.3216 0 15.068-6.7457 15.068-15.067 0-8.3229-6.7461-15.069-15.068-15.069zm-95.038 3h95.038c6.6651 0 12.068 5.4029 12.068 12.069 0 6.6643-5.4032 12.067-12.068 12.067h-95.038c-6.6648 0-12.068-5.4027-12.068-12.067 0-6.6661 5.4029-12.069 12.068-12.069z" fill="var(--deep-purple)" />
<path d="m761.65 178.79h-85.078c-8.3224 0-15.068 6.7456-15.068 15.068s6.7456 15.068 15.068 15.068h85.078c8.3218 0 15.068-6.7459 15.068-15.068s-6.7462-15.068-15.068-15.068zm-85.078 3h85.078c6.6649 0 12.068 5.4028 12.068 12.068s-5.4031 12.068-12.068 12.068h-85.078c-6.6656 0-12.068-5.4024-12.068-12.068s5.4024-12.068 12.068-12.068z" fill="var(--deep-purple)"  />
<path d="m627.9 207.42h-40c-7.493 0-13.568-6.074-13.568-13.568s6.075-13.568 13.568-13.568h40c7.493 0 13.567 6.074 13.567 13.568s-6.074 13.568-13.567 13.568" fill="var(--deep-purple)"/>
<path d="m627.9 178.79h-40c-8.3218 0-15.068 6.7459-15.068 15.068s6.7462 15.068 15.068 15.068h40c8.3216 0 15.067-6.7457 15.067-15.068s-6.7454-15.068-15.067-15.068zm-40 3h40c6.6647 0 12.067 5.4026 12.067 12.068s-5.4023 12.068-12.067 12.068h-40c-6.6649 0-12.068-5.4028-12.068-12.068s5.4031-12.068 12.068-12.068z" fill="var(--deep-purple)" />
<path d="m409.47 30.94c0.52412-1.4908 2.6644-1.2481 2.8956 0.25044l0.015972 0.14415 1.67 24.303 5.4506-12.165c0.38561-0.86085 1.4509-1.147 2.2116-0.62797l0.11169 0.083924 4.9102 4.0492h8.783l5.9387-14.124c0.56439-1.3426 2.4874-1.1609 2.8333 0.19603l0.030042 0.14455 3.6189 22.261 5.1545-9.5825c0.36933-0.68667 1.1968-0.96919 1.9011-0.6729l0.13048 0.062381c0.68668 0.36933 0.9692 1.1968 0.6729 1.9011l-0.062381 0.13048-7.247 13.474c-0.6562 1.22-2.4468 0.96409-2.7732-0.33205l-0.028432-0.13778-3.4899-21.464-4.2987 10.226c-0.216 0.51383-0.69696 0.86187-1.2446 0.91237l-0.13819 0.006351h-10.318c-0.29851 0-0.58904-0.089029-0.83516-0.254l-0.11919-0.088752-3.8092-3.1412-7.0976 15.847c-0.61847 1.3807-2.6272 1.0695-2.8496-0.36771l-0.015834-0.14259-1.584-23.036-3.5784 10.18c-0.19491 0.55441-0.69328 0.9395-1.2695 0.99546l-0.14556 0.0070417h-11.835c-0.82843 0-1.5-0.67157-1.5-1.5 0-0.7797 0.59489-1.4204 1.3555-1.4931l0.14446-0.0068666 10.772-1e-3 5.6384-16.037z" fill="var(--deep-purple)" />
<path d="m600.91 30.447c0.42798-1.5056 2.552-1.4148 2.8989 0.045504l0.027901 0.14559 2.985 20.222 0.89811-2.8349c0.18335-0.57889 0.69533-0.98553 1.2911-1.0407l0.13887-0.0064029h7.869c0.82843 0 1.5 0.67157 1.5 1.5 0 0.7797-0.59489 1.4204-1.3555 1.4931l-0.14446 0.0068666-6.7711-1e-3 -2.5299 7.9899c-0.46498 1.4681-2.5413 1.35-2.8854-0.085903l-0.02851-0.14797-2.9162-19.756-3.1011 10.911c-0.17023 0.59885-0.69029 1.0253-1.3005 1.0831l-0.14231 0.006721-3.7511-1e-3 -2.6962 8.0153c-0.45379 1.3488-2.3266 1.3508-2.8175 0.073145l-0.047185-0.14179-4.3811-15.433-1.5182 6.3367c-0.15095 0.62962-0.68648 1.086-1.3212 1.144l-0.13743 0.0062605h-6.665c-0.61645 0-1.1648-0.37626-1.3914-0.93953l-0.046463-0.13322-3.2832-11.048-2.838 19.869c-0.19034 1.3324-1.883 1.7403-2.6711 0.70702l-0.080871-0.11625-5.726-9.036c-0.44343-0.69976-0.23563-1.6265 0.46413-2.0699 0.6586-0.41734 1.5183-0.25782 1.9868 0.34578l0.083125 0.11835 3.5489 5.6009 3.2332-22.631c0.22054-1.5438 2.3264-1.7465 2.8747-0.3548l0.04808 0.13967 4.916 16.547h4.364l2.5794-10.757c0.34797-1.4513 2.3406-1.5406 2.8539-0.20337l0.047699 0.14343 4.6239 16.288 1.4974-4.4483c0.19072-0.56688 0.69772-0.96193 1.2849-1.0155l0.13682-0.0062168 3.6959-1e-3 4.6993-16.53z" fill="var(--deep-purple)" />
<path d="m519.13 225.24c0 9.843-7.979 17.822-17.822 17.822s-17.823-7.979-17.823-17.822 7.98-17.822 17.823-17.822 17.822 7.979 17.822 17.822" fill="var(--deep-purple)"/>
<path d="m511.84 221.44c0 3.713-3.011 6.724-6.724 6.724s-6.723-3.011-6.723-6.724 3.01-6.724 6.723-6.724 6.724 3.011 6.724 6.724" fill="var(--white)"/>
<polygon points="637.61 403.41 607.94 433.08 578.28 403.41 607.94 373.74" fill="var(--deep-purple)"/>
<path d="m606.88 372.68-29.669 29.67c-0.58577 0.58579-0.58576 1.5355 1.8e-5 2.1213l29.669 29.669c0.58579 0.58579 1.5355 0.58579 2.1213 0l29.669-29.669c0.58578-0.58578 0.58579-1.5355 1.8e-5 -2.1213l-29.669-29.67c-0.58579-0.58581-1.5356-0.58581-2.1214 0zm1.0605 3.1819 27.548 27.548-27.548 27.549-27.549-27.549 27.549-27.548z" fill="var(--deep-purple)" />
<polygon points="667.28 403.41 637.61 433.08 607.94 403.41 637.61 373.74" fill="var(--white)"/>
<path d="m636.55 372.68-29.669 29.67c-0.58577 0.58579-0.58576 1.5355 1.8e-5 2.1213l29.669 29.669c0.58578 0.58578 1.5355 0.58579 2.1213 1.8e-5l29.67-29.669c0.5858-0.58578 0.58581-1.5355 1.8e-5 -2.1213l-29.67-29.67c-0.58579-0.58579-1.5356-0.58579-2.1213 1.8e-5zm1.0606 3.1819 27.548 27.548-27.548 27.549-27.549-27.549 27.549-27.548z" fill="var(--deep-purple)" />
<polygon points="696.95 403.41 667.28 433.08 637.61 403.41 667.28 373.74" fill="var(--white)"/>
<path d="m666.22 372.68-29.67 29.67c-0.58579 0.58579-0.58579 1.5356 1.8e-5 2.1213l29.67 29.669c0.58579 0.58577 1.5355 0.58576 2.1213-1.8e-5l29.669-29.669c0.58578-0.58578 0.58579-1.5355 1.8e-5 -2.1213l-29.669-29.67c-0.58578-0.5858-1.5355-0.58581-2.1213-1.8e-5zm1.0597 3.182 27.549 27.548-27.549 27.549-27.548-27.549 27.548-27.548z" fill="var(--deep-purple)" />
<path d="m525.78 265.5c0 6.126-4.966 11.092-11.092 11.092s-11.092-4.966-11.092-11.092 4.966-11.092 11.092-11.092 11.092 4.966 11.092 11.092" fill="var(--deep-purple)"/>
<path d="m522.13 263.4c0 1.656-1.343 2.999-2.999 2.999-1.657 0-3-1.343-3-2.999 0-1.657 1.343-3 3-3 1.656 0 2.999 1.343 2.999 3" fill="var(--white)"/>
<path d="m473.47 244.47c0 3.917-3.175 7.093-7.093 7.093-3.917 0-7.092-3.176-7.092-7.093s3.175-7.093 7.092-7.093c3.918 0 7.093 3.176 7.093 7.093" fill="var(--deep-purple)"/>
<path d="m465.37 242.7c0 0.98-0.795 1.774-1.775 1.774s-1.775-0.794-1.775-1.774 0.795-1.774 1.775-1.774 1.775 0.794 1.775 1.774" fill="var(--white)"/>
<path d="m50.567 320.47c0.57771-0.59375 1.5274-0.60675 2.1211-0.029042s0.60675 1.5274 0.029042 2.1211c-24.105 24.774-36.763 59.895-31.957 91.925 2.5391 16.919 10.744 32.533 22.442 44.291l0.092886 0.091984 0.029359-0.21088c1.2993-8.9138 3.9389-17.579 8.0211-25.771l0.56562-1.1141c10.303-19.923 27.844-35.2 47.97-40.924 11.299-3.2126 24.118-2.6118 34.402 1.7929 11.505 4.9279 18.947 14.099 20.346 26.552 2.0724 18.432-5.9942 35.881-21.093 48.29-14.443 11.869-33.618 17.615-51.168 14.958-13.4-2.0287-25.814-8.0606-36.148-16.802l-0.58893-0.50437-0.080404 1.1823c-1.7372 27.894 9.4276 57.725 30.357 82.414l0.90294 1.0549c30.985 35.853 80.778 52.813 130.83 46.339 38.941-5.0367 75.893-24.983 102.67-54.997 0.5515-0.61818 1.4997-0.67223 2.1179-0.12074 0.61818 0.5515 0.67223 1.4997 0.12074 2.1179-27.25 30.545-64.857 50.844-104.52 55.975-51.018 6.5981-101.82-10.704-133.49-47.353-22.653-26.213-34.498-58.352-31.793-88.205l0.090075-0.93252-0.30402-0.28707c-12.682-12.129-21.664-28.52-24.582-46.38l-0.15868-1.0125c-4.9518-32.997 8.0392-69.042 32.773-94.463zm82.535 74.931c-9.6334-4.1262-21.747-4.6939-32.4-1.6649-19.295 5.4877-36.189 20.201-46.126 39.416-4.4454 8.5968-7.2214 17.766-8.4544 27.222l-0.13247 1.0707 0.68252 0.61548c9.9748 8.8788 22.092 15.082 35.207 17.267l0.93846 0.14921c16.683 2.5256 35.011-2.9656 48.814-14.31 14.352-11.794 21.969-28.272 20.017-45.637-1.273-11.329-7.992-19.609-18.546-24.13z" fill="var(--deep-purple)" />
<path d="m646.47 508.37c15.254 0 28.993 8.5451 35.879 21.861 2.9328 5.6721 4.4836 11.974 4.4836 18.501 0 3.4939-0.4446 6.9316-1.3139 10.254-0.2097 0.80145-1.0294 1.2811-1.8308 1.0714-0.80145-0.2097-1.2811-1.0294-1.0714-1.8308 0.80455-3.0748 1.2161-6.2573 1.2161-9.4943 0-6.0449-1.4346-11.874-4.1484-17.123-6.3762-12.329-19.094-20.239-33.215-20.239-20.432 0-37.035 16.396-37.365 36.744l-0.004112 0.85157 0.005345 0.19661c0.040119 0.82746-0.59814 1.5308-1.4256 1.5709s-1.5308-0.59814-1.5709-1.4256l-0.005595-0.14808-0.004165-0.2154v-0.21216c0-22.29 18.075-40.362 40.37-40.362z" fill="var(--deep-purple)" />
<path d="m685.51 529.07c16.58 0 30.019 13.442 30.019 30.018 0 16.577-13.439 30.02-30.019 30.02-0.82843 0-1.5-0.67157-1.5-1.5s0.67157-1.5 1.5-1.5c14.923 0 27.019-12.099 27.019-27.02 0-14.92-12.096-27.018-27.019-27.018-1.425 0-2.8454 0.11323-4.2645 0.33587-0.81842 0.1284-1.586-0.43097-1.7144-1.2494s0.43097-1.586 1.2494-1.7144c1.5712-0.24651 3.147-0.37213 4.7295-0.37213z" fill="var(--deep-purple)" />
<path d="m607.5 547.74c0.82654-0.055809 1.5418 0.569 1.5976 1.3955 0.055809 0.82654-0.569 1.5418-1.3955 1.5976-9.2568 0.62502-16.488 8.3318-16.488 17.658 0 9.7861 7.9249 17.713 17.705 17.713 0.82843 0 1.5 0.67157 1.5 1.5s-0.67157 1.5-1.5 1.5c-11.437 0-20.705-9.2702-20.705-20.713 0-10.908 8.4568-19.92 19.286-20.652z" fill="var(--deep-purple)" />
<path d="m628.46 577.11c0.7797 0 1.4204 0.59489 1.4931 1.3555l0.006867 0.14446v22.522c0 0.82843-0.67157 1.5-1.5 1.5-0.7797 0-1.4204-0.59489-1.4931-1.3555l-0.006867-0.14446v-22.522c0-0.82843 0.67157-1.5 1.5-1.5z" fill="var(--deep-purple)"   />
<path d="m647.28 577.11c0.7797 0 1.4204 0.59489 1.4931 1.3555l0.006867 0.14446v36.715c0 0.82843-0.67157 1.5-1.5 1.5-0.7797 0-1.4204-0.59489-1.4931-1.3555l-0.006867-0.14446v-36.715c0-0.82843 0.67157-1.5 1.5-1.5z" fill="var(--deep-purple)"   />
<path d="m666.1 577.11c0.7797 0 1.4204 0.59489 1.4931 1.3555l0.006867 0.14446v22.522c0 0.82843-0.67157 1.5-1.5 1.5-0.7797 0-1.4204-0.59489-1.4931-1.3555l-0.006867-0.14446v-22.522c0-0.82843 0.67157-1.5 1.5-1.5z" fill="var(--deep-purple)"   />
<path d="m196.6 25.467c2.4646 0 4.8676 0.36341 7.1493 1.0762 0.79074 0.24704 1.2315 1.0883 0.98446 1.8791-0.24704 0.79074-1.0883 1.2315-1.8791 0.98446-1.9909-0.62197-4.0922-0.93976-6.2547-0.93976-11.71 0-21.202 9.4942-21.202 21.212 0 11.711 9.4955 21.212 21.202 21.212 0.82843 0 1.5 0.67157 1.5 1.5s-0.67157 1.5-1.5 1.5c-13.364 0-24.202-10.845-24.202-24.212 0-13.374 10.835-24.212 24.202-24.212z" fill="var(--deep-purple)"   />
<path d="m258.63 34.5c0.25536-0.78809 1.1012-1.2199 1.8893-0.96459 8.4586 2.7408 14.299 10.648 14.299 19.678 0 11.42-9.2576 20.678-20.678 20.678-5.2449 0-10.187-1.9604-13.973-5.4313-0.61065-0.55982-0.65185-1.5087-0.092031-2.1193 0.55982-0.61065 1.5087-0.65185 2.1193-0.092032 3.2379 2.9684 7.4583 4.6427 11.945 4.6427 9.7636 0 17.678-7.9144 17.678-17.678 0-7.7207-4.9936-14.481-12.223-16.824-0.78809-0.25536-1.2199-1.1012-0.96459-1.8893z" fill="var(--deep-purple)"   />
<path d="m231.9-0.5249c16.645 0 30.149 13.505 30.149 30.15 0 1.8962-0.17775 3.7819-0.52521 5.6162-0.15418 0.81395-0.93901 1.3488-1.753 1.1946-0.81395-0.15418-1.3488-0.93901-1.1946-1.753 0.31266-1.6506 0.47279-3.3493 0.47279-5.0578 0-14.988-12.161-27.15-27.149-27.15-14.41 0-26.288 11.263-27.101 25.585-0.046978 0.82709-0.75555 1.4595-1.5826 1.4125s-1.4595-0.75555-1.4125-1.5826c0.90356-15.908 14.094-28.415 30.097-28.415z" fill="var(--deep-purple)"   />
<path d="m200.51 70.888c0.82843 0 1.5 0.67157 1.5 1.5 0 0.7797-0.59489 1.4204-1.3555 1.4931l-0.14446 0.0068666h-3.906c-0.82843 0-1.5-0.67157-1.5-1.5 0-0.7797 0.59489-1.4204 1.3555-1.4931l0.14446-0.0068666h3.906z" fill="var(--deep-purple)"   />
<path d="m212.54 54.803c0.7797 0 1.4204 0.59489 1.4931 1.3555l0.006867 0.14446v37.659c0 0.82843-0.67157 1.5-1.5 1.5-0.7797 0-1.4204-0.59489-1.4931-1.3555l-0.006867-0.14446v-37.659c0-0.82843 0.67157-1.5 1.5-1.5z" fill="var(--deep-purple)"   />
<path d="m228.9 41.563c0.7797 0 1.4204 0.59489 1.4931 1.3555l0.006867 0.14446v37.659c0 0.82843-0.67157 1.5-1.5 1.5-0.7797 0-1.4204-0.59489-1.4931-1.3555l-0.006867-0.14446v-37.659c0-0.82843 0.67157-1.5 1.5-1.5z" fill="var(--deep-purple)"   />
<path d="m486.16 268.57c0.2535-0.73734 1.0244-1.1499 1.7674-0.97129l0.13884 0.040474 11.489 3.95c0.78342 0.26934 1.2002 1.1228 0.93081 1.9062-0.2535 0.73734-1.0244 1.1499-1.7674 0.97129l-0.13884-0.040474-11.489-3.95c-0.78342-0.26934-1.2002-1.1228-0.93081-1.9062z" fill="var(--deep-purple)"   />
<path d="m480.42 276.53c0.25356-0.73732 1.0245-1.1498 1.7674-0.97115l0.13884 0.040485 11.489 3.951c0.7834 0.26941 1.2001 1.1229 0.93066 1.9063-0.25356 0.73732-1.0245 1.1498-1.7674 0.97115l-0.13884-0.040485-11.489-3.951c-0.7834-0.26941-1.2001-1.1229-0.93066-1.9063z" fill="var(--deep-purple)"   />
</g>
</g>
</svg>